<svg id="Layer_3" data-name="Layer 3" xmlns="http://www.w3.org/2000/svg" viewBox="0 0 590.68 443.79"><defs><style>.cls-1{fill:#ff9700;}.cls-2{opacity:0.8;}.cls-3{fill:#00bed0;}.cls-4{fill:#fff;}</style></defs><title>logo</title><path class="cls-1" d="M278,113.64c-1,.2-2,.37-3,.51l4-.53a46.75,46.75,0,0,1-11.46-.11l4,.54c-9.4-1.28-18.36-4.66-27.17-8-8.5-3.26-16.92-6.73-25.54-9.69-18.81-6.46-39-9.92-58.64-4.86a93.72,93.72,0,0,0-26,11.56,159.89,159.89,0,0,0-13.2,9.51,88.45,88.45,0,0,0-9.6,8.33,45.19,45.19,0,0,0-10,16c-1.94,5.24-2.32,11-2.91,16.53-1,8.87-1.68,17.76-2,26.67a237.06,237.06,0,0,0,4.18,56.4,164,164,0,0,0,21.73,53.47,371.16,371.16,0,0,0,65.69,78.46,407,407,0,0,0,82.6,58.15c3.43,1.82,7.16,3.36,10.3,5.67l-3-2.34a17.93,17.93,0,0,1,3.07,3l-2.35-3a10.36,10.36,0,0,1,1.09,1.84l-1.52-3.58a6.62,6.62,0,0,1,.41,1.51l-.54-4a5.42,5.42,0,0,1,0,1.14l.54-4a4.59,4.59,0,0,1-.2.75l1.51-3.58a7,7,0,0,1-.6,1.11l2.35-3a7.55,7.55,0,0,1-1.13,1.13l3-2.34a19.93,19.93,0,0,1-3.78,2l3.58-1.51a26,26,0,0,1-6,1.63l4-.53a33.57,33.57,0,0,1-8.9-.08l4,.53a60.11,60.11,0,0,1-14.3-4.22l3.59,1.51c-10.21-4.35-19.92-10.1-29.55-15.6-9.84-5.61-19.52-11.5-28.9-17.85q-8-5.42-15.64-11.3l3,2.35c-8.4-6.51-16.24-13.6-23.95-20.91a211.34,211.34,0,0,0-27.24-22.33c-5-3.39-10.17-6.66-15-10.37l3,2.35a95.58,95.58,0,0,1-16.71-16.92l2.34,3c-7.12-9.22-12.86-19.4-18.19-29.74q-8.46-16.4-16.36-33.1c-3.11-6.55-6.11-13.16-8.93-19.84l1.51,3.59c-7.84-18.65-14.26-38-17-58.11l.53,4c-.61-4.68-1-9.37-1.23-14.08a15.71,15.71,0,0,0-4.4-10.6,15.19,15.19,0,0,0-10.6-4.4c-3.88.18-7.91,1.45-10.61,4.4s-4.56,6.6-4.39,10.6a193.59,193.59,0,0,0,8.2,47.27c4.61,15.34,10.81,30.2,17.47,44.75,6.08,13.31,12.59,26.44,19.26,39.47,6.77,13.22,14.28,25.91,23.85,37.32a108.31,108.31,0,0,0,19.41,17.69c6.81,5,14.09,9.28,20.79,14.42l-3-2.35c7.69,6,14.58,12.86,21.69,19.5a296.59,296.59,0,0,0,24.14,20.05c15,11.29,31,21.07,47.37,30.2,9,5,18,10,27.51,13.94a62.14,62.14,0,0,0,12.7,4,52.36,52.36,0,0,0,19.49.18,39,39,0,0,0,9.07-3.19,22.24,22.24,0,0,0,9.81-8.34,19.66,19.66,0,0,0,2.28-14.94,24.06,24.06,0,0,0-6-10.47c-3.57-3.91-8.23-6.23-12.84-8.62q-5.66-3-11.23-6.08a395,395,0,0,1-47.91-31.72l3,2.34A377.94,377.94,0,0,1,178.77,316q-6.81-7.81-13.15-16l2.35,3c-12.12-15.69-23.81-32.43-31.56-50.76l1.51,3.59a156.71,156.71,0,0,1-10.36-39.29l.53,4c-3.14-23.69-2.25-48.17.93-71.81l-.54,4a37.13,37.13,0,0,1,2.26-9l-1.52,3.59a27.22,27.22,0,0,1,3.28-5.49l-2.35,3c3.45-4.38,7.87-7.91,12.25-11.32l-3,2.35a105.27,105.27,0,0,1,22.58-13.68l-3.58,1.51A67.91,67.91,0,0,1,175.3,119l-4,.53a73.54,73.54,0,0,1,19.38.15l-4-.54c12.19,1.71,23.86,5.81,35.3,10.2,11.68,4.49,23.32,9.78,35.56,12.56a65.93,65.93,0,0,0,28.44.68c3.55-.74,7.18-3.85,9-6.9a15.35,15.35,0,0,0,1.51-11.56c-1.18-3.62-3.43-7.13-6.9-9A16.51,16.51,0,0,0,278,113.64Z" transform="translate(-24.89 -10.65)"/><path class="cls-1" d="M58.68,186.28q-1.16-6-2-12l.54,4a301.53,301.53,0,0,1-1.9-54.73c.26-4.93.67-9.85,1.32-14.74l-.54,4a109.36,109.36,0,0,1,7.26-27.9l-1.51,3.58A83.47,83.47,0,0,1,72.51,70.34l-2.35,3A87.58,87.58,0,0,1,85.67,57.86l-3,2.35a85.65,85.65,0,0,1,18.59-10.9l-3.58,1.51A96.48,96.48,0,0,1,122,44.43L118,45a190.86,190.86,0,0,1,22.15-1.48,155,155,0,0,1,22.8.93l-4-.54a99.29,99.29,0,0,1,25,7.27l-3.59-1.51c11.94,5,23.65,10.64,35.44,16,10.88,5,22,9.63,32.59,15.12a100.49,100.49,0,0,1,15.31,9.5l-3-2.34A58.73,58.73,0,0,1,271,98l-2.35-3a49.68,49.68,0,0,1,6.46,11.1l-1.51-3.58a47.19,47.19,0,0,1,3.21,11.55l-.54-4a32.29,32.29,0,0,1,0,8.1l.53-4A27.53,27.53,0,0,1,275,121l1.51-3.58a20.86,20.86,0,0,1-2.42,4.23l2.35-3a16,16,0,0,1-2.68,2.72l3-2.34a14.58,14.58,0,0,1-2.77,1.65l3.58-1.51a14.87,14.87,0,0,1-3.71,1l4-.54a19.65,19.65,0,0,1-4.66-.1l4,.54a72.49,72.49,0,0,1-12.1-3.32q-5.85-2-11.54-4.37l3.58,1.52a195.92,195.92,0,0,1-27.6-14.75,69.91,69.91,0,0,0-16.71-8,64.82,64.82,0,0,0-11.5-2c-2.62-.29-5.27-.41-7.91-.52-11-.47-22-.94-33,.35a101.71,101.71,0,0,0-18.55,3.52,81.44,81.44,0,0,0-15.4,6.52,67.58,67.58,0,0,0-13.32,9.78,45.27,45.27,0,0,0-4.43,4.86,61.14,61.14,0,0,0-5.69,8.07C97.28,132,94.91,144,92.16,155.37a279.87,279.87,0,0,0-6.55,36.55,135.88,135.88,0,0,0-.79,16.26A138.18,138.18,0,0,0,86.44,226a96.79,96.79,0,0,0,9.74,30.23A85.65,85.65,0,0,0,106,270.77c3.17,3.94,6.81,7.45,10.26,11.13,1.7,1.82,3.35,3.68,4.88,5.65l-2.35-3c.54.7,1.06,1.4,1.56,2.12,2.27,3.26,5,5.81,9,6.9A15.35,15.35,0,0,0,140.83,292c3.2-2.07,6-5.14,6.89-9s.78-8.28-1.51-11.56a108.58,108.58,0,0,0-10.9-13,127.79,127.79,0,0,1-9-10l2.34,3a71.31,71.31,0,0,1-9-15.57l1.52,3.59a90.41,90.41,0,0,1-6-22.68l.53,4a128.83,128.83,0,0,1,.46-33.69l-.54,4A276.29,276.29,0,0,1,121,163.59c1.08-4.48,2.21-8.94,3.35-13.4a96.88,96.88,0,0,1,3.94-12.57l-1.51,3.58a42.61,42.61,0,0,1,5.47-9.45l-2.34,3a45.94,45.94,0,0,1,8-7.92l-3,2.34A57.77,57.77,0,0,1,147.49,122l-3.58,1.51a75.43,75.43,0,0,1,19.09-5l-4,.53a147.59,147.59,0,0,1,21.94-1,197.1,197.1,0,0,1,21.74,1.12l-4-.53a38.71,38.71,0,0,1,9.63,2.56l-3.58-1.51a81.46,81.46,0,0,1,11.11,6.18c3.7,2.34,7.43,4.61,11.28,6.69a192.83,192.83,0,0,0,27.36,12.1,101.33,101.33,0,0,0,12.83,3.89,36.15,36.15,0,0,0,10.05,1,31.45,31.45,0,0,0,12-3.22c4.68-2.23,8.33-6.26,11.17-10.48a38.23,38.23,0,0,0,3.45-7.25,27.52,27.52,0,0,0,1.33-4.43,50.45,50.45,0,0,0-2.13-27.92,65,65,0,0,0-7-14.25,70.71,70.71,0,0,0-9.81-11.62c-12.89-12-29.09-18.76-44.89-25.94L215,32.47c-9.51-4.32-19-8.86-28.75-12.52-18.49-6.94-38.65-7.31-58.15-6-10.21.69-20.58,2-30.4,5A97.81,97.81,0,0,0,74.17,29.63,101.9,101.9,0,0,0,54.49,45.68,99.76,99.76,0,0,0,39.55,66c-9.44,17.2-13,36.58-14.1,56a298.71,298.71,0,0,0,1.68,55.37c.73,5.67,1.54,11.33,2.63,16.95.68,3.53,3.88,7.2,6.89,9a15.35,15.35,0,0,0,11.56,1.52c3.63-1.18,7.13-3.43,9-6.9l1.51-3.58a15,15,0,0,0,0-8Z" transform="translate(-24.89 -10.65)"/><path class="cls-1" d="M94.44,64.63A42.87,42.87,0,0,0,92,68.49a52.68,52.68,0,0,0-2.32,5.35A11.89,11.89,0,0,0,89.09,76a32.59,32.59,0,0,0-.67,5.58c0,.3,0,.59,0,.89a41.77,41.77,0,0,0,.68,4.86,26.15,26.15,0,0,0,2,5,5.56,5.56,0,0,0,.39.77c.07.12.15.24.23.36.78,1.13,1.68,2.26,2.55,3.31,2.39,2.89,6.1,4.71,9.58,5.84a11.79,11.79,0,0,0,2,.45c2,.3,4,.57,5.95.78a61.74,61.74,0,0,0,7.69.32,68.75,68.75,0,0,0,11.63-1.36,49.18,49.18,0,0,0,10.56-3.68A37.43,37.43,0,0,0,151,92.87a36.48,36.48,0,0,0,5-5.76,10.62,10.62,0,0,0,1.12-1.75A21.34,21.34,0,0,0,159.21,80a20.39,20.39,0,0,0,.59-5.69,30.82,30.82,0,0,0-.67-4.65,4.5,4.5,0,0,0-.16-.48c-.45-1.24-1.06-2.69-1.64-3.88a6.3,6.3,0,0,0-.4-.72A37.82,37.82,0,0,0,154.19,61a26.45,26.45,0,0,0-4.26-3.52,15.51,15.51,0,0,0-3.24-1.85c-2.44-1.07-4.87-2.08-7.4-2.92a68,68,0,0,0-9.13-2.36,84.93,84.93,0,0,0-13.11-1.52A73.85,73.85,0,0,0,104,49.91,43.8,43.8,0,0,0,95.68,52a62.68,62.68,0,0,0-10.39,4.71,60.64,60.64,0,0,0-9.13,6.72,54.48,54.48,0,0,0-7.42,8.48,33.22,33.22,0,0,0-3.84,6.57c-.73,1.69-1.51,3.41-2.14,5.16a22.65,22.65,0,0,0-1,5.9,14.56,14.56,0,0,0,.76,5.75,17.68,17.68,0,0,0,4.85,7.87,18.55,18.55,0,0,0,4.45,3.14,46.14,46.14,0,0,0,5.56,2.19,34.33,34.33,0,0,0,4.71,1,60.2,60.2,0,0,0,8.57.83,11.33,11.33,0,0,0,5.77-1.3,13.48,13.48,0,0,0,7.93-7.92,11.4,11.4,0,0,0,1.3-5.78l-.54-4a15,15,0,0,0-3.86-6.62l-3-2.35a14.93,14.93,0,0,0-7.57-2,34.91,34.91,0,0,1-4.46-.28l4,.54a29,29,0,0,1-6.8-1.7L87,80.41a7,7,0,0,1-1.41-.8l3,2.35a4.54,4.54,0,0,1-.62-.62l2.35,3a3.43,3.43,0,0,1-.37-.64l1.51,3.59a3.37,3.37,0,0,1-.21-.77l.53,4a4.9,4.9,0,0,1,0-1.21l-.54,4a13.39,13.39,0,0,1,1-3L90.7,93.88a33,33,0,0,1,4.17-7.11l-2.35,3a37.21,37.21,0,0,1,6.64-6.63l-3,2.35a41.71,41.71,0,0,1,9.13-5.33l-3.58,1.52a44.46,44.46,0,0,1,11.15-3l-4,.54a54.89,54.89,0,0,1,14.43.08l-4-.53A63.2,63.2,0,0,1,135,83l-3.58-1.51a15.41,15.41,0,0,1,3.4,1.92l-3-2.34a8.54,8.54,0,0,1,1.32,1.3l-2.34-3a7.11,7.11,0,0,1,.76,1.27L130,77a5.6,5.6,0,0,1,.36,1.29l-.54-4a6,6,0,0,1,0,1.4l.53-4a7.77,7.77,0,0,1-.43,1.55l1.51-3.59A10.83,10.83,0,0,1,130,72l2.35-3a21.79,21.79,0,0,1-3.73,3.64l3-2.35a26.15,26.15,0,0,1-5.59,3.23L129.67,72a35.75,35.75,0,0,1-9,2.38l4-.54a55.73,55.73,0,0,1-14.31-.1l4,.53a12.7,12.7,0,0,1-3-.72L114.84,75a6.56,6.56,0,0,1-1.41-.8l3,2.35a6,6,0,0,1-1-1l2.35,3a7.13,7.13,0,0,1-.86-1.49l1.51,3.58a7.89,7.89,0,0,1-.53-2l.53,4a9.92,9.92,0,0,1,0-2.31l-.53,4a12.11,12.11,0,0,1,.83-3L117.29,85a31.1,31.1,0,0,1,3.06-5.23,11.21,11.21,0,0,0,1.78-5.58,11.48,11.48,0,0,0-.27-6,11.34,11.34,0,0,0-2.69-5.1,11.31,11.31,0,0,0-4.2-3.86l-3.59-1.51a15,15,0,0,0-8,0l-3.59,1.51a15.15,15.15,0,0,0-5.38,5.38Z" transform="translate(-24.89 -10.65)"/><path class="cls-1" d="M106,75.73A115.18,115.18,0,0,0,95.69,90.64a129,129,0,0,0-7.57,16.47,130.76,130.76,0,0,0-7.35,28.61,214.57,214.57,0,0,0-2.37,33.5c.12,11.68,1.08,23.34,2.21,35,1.16,11.85,2.5,23.69,3.38,35.57.44,5.94.76,11.88.88,17.83.1,5.26,0,10.53.19,15.79a97.13,97.13,0,0,0,2.18,18.32,53,53,0,0,0,3,8.77,41.69,41.69,0,0,0,4.24,8.07c7.21,10.23,17.41,17.74,26.85,25.78l55.48,47.24,6.84,5.82c3.08,2.63,6.44,4.4,10.61,4.4a15.26,15.26,0,0,0,10.6-4.4c2.63-2.85,4.57-6.61,4.4-10.6a15.53,15.53,0,0,0-4.4-10.61c-14.63-14.34-28.56-29.38-42-44.81s-26.41-31.12-39.24-47c-7.25-8.95-14.59-17.85-21.63-27l2.34,3A78.31,78.31,0,0,1,94,233.64l1.52,3.58c-4.33-10.46-6-21.85-8.1-32.9-2.28-11.87-4.51-23.74-6.48-35.67q-1.67-10.1-3.06-20.25l.54,4c-1.8-13.41-3.13-27-1.33-40.49l-.54,4a75.27,75.27,0,0,1,5-18.59L80,100.87a57.71,57.71,0,0,1,7.18-12.41l-2.35,3a53.39,53.39,0,0,1,9.25-9.21l-3,2.34a64.05,64.05,0,0,1,13.8-8l-3.58,1.52a100.45,100.45,0,0,1,25.24-6.54l-4,.54a202.56,202.56,0,0,1,25.7-1.6,214.18,214.18,0,0,1,29.19,1.64l-4-.53A125.5,125.5,0,0,1,205.24,80l-3.59-1.51q2.1.89,4.16,1.87c3.71,1.75,7.48,2.63,11.56,1.51a15.32,15.32,0,0,0,9-6.9c1.84-3.48,2.76-7.69,1.51-11.55-1.15-3.54-3.41-7.32-6.9-9a129.39,129.39,0,0,0-25.82-9.22,181.25,181.25,0,0,0-27.12-4,217.65,217.65,0,0,0-45,.88c-15.54,2-31.3,5.7-44.45,14.68A71.06,71.06,0,0,0,59.41,75.91,74.19,74.19,0,0,0,49.23,99.47c-4.75,19-2.81,38.36-.2,57.53,2.4,17.59,5.58,35.07,8.92,52.51,1.6,8.4,3,16.9,5.16,25.18A81.25,81.25,0,0,0,74.26,260c5.27,7.74,11.4,14.91,17.25,22.2q8,9.92,16,19.8c21.41,26.31,43.35,52.24,67.13,76.45q4.46,4.53,9,9l21.21-21.21-68.92-58.68c-5.9-5-12.28-9.84-17.08-16l2.35,3a35.65,35.65,0,0,1-4.31-7.41l1.51,3.58a49.21,49.21,0,0,1-3.16-12.18l.53,4c-1.12-8.58-.72-17.24-.92-25.86-.24-9.81-1-19.61-1.93-29.38-1.82-19.23-4.29-38.45-4.52-57.79A193.28,193.28,0,0,1,110,141.54l-.54,4a131.88,131.88,0,0,1,8.77-33.33l-1.51,3.58a96.7,96.7,0,0,1,12.19-21l-2.34,3,.64-.83a11.23,11.23,0,0,0,3.1-4.83,11.35,11.35,0,0,0,1.3-5.78,15.26,15.26,0,0,0-4.4-10.6c-2.86-2.63-6.61-4.57-10.6-4.4-3.7.17-8.21,1.35-10.61,4.4Z" transform="translate(-24.89 -10.65)"/><path class="cls-1" d="M226.58,89.61l23.74,11.71,3.24,1.6a18.08,18.08,0,0,1,2.87,1.56l-3-2.35a4.51,4.51,0,0,1,.66.65l-2.34-3a4,4,0,0,1,.39.67l-1.51-3.58a5.16,5.16,0,0,1,.3,1.17l-.54-4c.3,2.51.32,5.07.47,7.58l.22,3.84a17.87,17.87,0,0,1,0,3.43l.54-4a6.07,6.07,0,0,1-.38,1.37l1.51-3.59a5.42,5.42,0,0,1-.49.84l2.35-3a5.34,5.34,0,0,1-.93.91l3-2.34a7.81,7.81,0,0,1-1.49.84l3.58-1.51a15.13,15.13,0,0,1-3.64,1l4-.53a20.72,20.72,0,0,1-5.45,0l4,.53a36,36,0,0,1-8.84-2.62l3.58,1.51c-3.67-1.55-7.2-3.43-10.76-5.22l-11.27-5.68L207.84,75.9l-12.71-6.41a11.18,11.18,0,0,0-5.58-1.78,13.5,13.5,0,0,0-11.08,3,11.28,11.28,0,0,0-3.87,4.21l-1.51,3.59a15.18,15.18,0,0,0,0,8L174.6,90A15.18,15.18,0,0,0,180,95.4l26,13.1c8.63,4.35,17.25,8.73,25.9,13,3.08,1.54,6.21,2.89,9.4,4.21a38.26,38.26,0,0,0,6.35,2.06,57.71,57.71,0,0,0,6.92,1,21,21,0,0,0,3.17.07c1.14-.06,2.27-.25,3.4-.4s2.36-.28,3.51-.55a13.38,13.38,0,0,0,1.41-.4c.22-.07.42-.15.63-.24,1.37-.55,2.78-1.09,4.11-1.75a16.79,16.79,0,0,0,2.57-1.81,14,14,0,0,0,2.44-2.09,30,30,0,0,0,2.61-3.42,3.84,3.84,0,0,0,.18-.35c.49-1,1.16-2.65,1.56-3.68a13.33,13.33,0,0,0,.64-3.36,24.19,24.19,0,0,0,.29-4.94c-.07-1.24-.15-2.47-.22-3.71-.14-2.39-.27-4.78-.41-7.17a21.86,21.86,0,0,0-2.57-10,2.07,2.07,0,0,0-.15-.25,34.18,34.18,0,0,0-2.45-3.19,4.89,4.89,0,0,0-.45-.46,24,24,0,0,0-4-3c-2-1.14-4.15-2.07-6.22-3.09l-6.49-3.2L245,65.31l-3.25-1.61a11.21,11.21,0,0,0-5.58-1.78,11.48,11.48,0,0,0-6,.27,11.34,11.34,0,0,0-5.1,2.69,11.26,11.26,0,0,0-3.86,4.21l-1.52,3.58a15.18,15.18,0,0,0,0,8l1.52,3.59a15,15,0,0,0,5.38,5.38Z" transform="translate(-24.89 -10.65)"/><path class="cls-1" d="M178.88,67.36A164.54,164.54,0,0,0,145.6,68c-12.26,1.35-24.42,3.39-36.56,5.53a96.12,96.12,0,0,0-14.21,3.33c-1.14.38-2.27.81-3.38,1.27-2.2.92-4.44,1.8-6.56,2.91A52.89,52.89,0,0,0,76.37,87a34.07,34.07,0,0,0-4.31,4.1,65,65,0,0,0-5.8,7.61,44.9,44.9,0,0,0-2.88,5.22,92.43,92.43,0,0,0-3.74,9,78.14,78.14,0,0,0-3.07,12c-1,5.36-1.65,10.8-2.13,16.24-.09,1-.17,2-.24,3.07A11.29,11.29,0,0,0,55.49,150a11.23,11.23,0,0,0,3.1,4.82,11.26,11.26,0,0,0,4.83,3.11,11.36,11.36,0,0,0,5.78,1.29l4-.54a15,15,0,0,0,6.62-3.86l2.34-3a14.94,14.94,0,0,0,2-7.57c.24-3.35.56-6.69,1-10l-.53,4a81.07,81.07,0,0,1,5.22-20.7l-1.52,3.58a45.53,45.53,0,0,1,5.75-10l-2.34,3a35.27,35.27,0,0,1,6.15-6.18l-3,2.34a36.47,36.47,0,0,1,8.12-4.68l-3.59,1.51a74.51,74.51,0,0,1,15.48-4.22c5.89-1.09,11.81-2.08,17.73-3,3.45-.55,6.9-1.07,10.36-1.53l-4,.53a195.85,195.85,0,0,1,31.07-2c2.94.07,5.88.25,8.81.52A16.7,16.7,0,0,0,189.49,93a11.33,11.33,0,0,0,3.1-4.83,11.29,11.29,0,0,0,1.29-5.78l-.54-4a14.94,14.94,0,0,0-3.85-6.62l-3-2.34a14.91,14.91,0,0,0-7.57-2Z" transform="translate(-24.89 -10.65)"/><path class="cls-1" d="M77.07,65C75.28,74.56,74,84.22,73,93.89q-1.19,12.64-1.2,25.35,0,7.22.37,14.4a11.26,11.26,0,0,0,1.29,5.78,13.46,13.46,0,0,0,7.93,7.93,11.29,11.29,0,0,0,5.78,1.29l4-.53a15.05,15.05,0,0,0,6.62-3.86l2.34-3a14.91,14.91,0,0,0,2-7.57A274.28,274.28,0,0,1,103,94.13q.53-5.58,1.27-11.15l-.54,4q.94-7,2.25-14a11.31,11.31,0,0,0,.27-6,11.21,11.21,0,0,0-1.78-5.57,11.34,11.34,0,0,0-3.86-4.21,11.32,11.32,0,0,0-5.11-2.69l-4-.53a14.91,14.91,0,0,0-7.57,2l-3,2.34A15,15,0,0,0,77.07,65Z" transform="translate(-24.89 -10.65)"/><g class="cls-2"><path class="cls-3" d="M352.5,92.19c-4.35.12-6.3,5-7.31,8.54a.5.5,0,0,0,1,.27c.87-3,2.53-7.71,6.35-7.81a.5.5,0,0,0,0-1Z" transform="translate(-24.89 -10.65)"/></g><path class="cls-3" d="M316.77,106.13l-2.54,15.64c-.5,3.1-1.24,6.25-1.14,9.4.22,6.46,3.55,12.88,9.28,16.11s12.47,3.72,18.73,4.25a77.16,77.16,0,0,0,13.51,0c20.26-1.8,39.47-9.1,56.73-19.72,4.33-2.66,8.48-5.56,12.58-8.55a68.89,68.89,0,0,1,13.18-8.09l-3.58,1.52a32.35,32.35,0,0,1,7.84-2.1l-4,.53a37.44,37.44,0,0,1,9.34.13l-4-.54a55,55,0,0,1,13.16,3.84L452.3,117A102.78,102.78,0,0,1,474,130.12l-3-2.35a124.37,124.37,0,0,1,21.86,21.76l-2.35-3a109.52,109.52,0,0,1,14.23,24.16l-1.51-3.58a92.23,92.23,0,0,1,6.24,22.54l-.54-4a81.65,81.65,0,0,1,0,21.47l.54-4c-1.47,10.49-4.85,20.54-8.94,30.27L502,229.8a269.52,269.52,0,0,1-34.68,59l2.35-3A275.47,275.47,0,0,1,420.8,334.7l3-2.35q-10.43,8.06-21.58,15.06c-8.57,5.37-17.51,10.11-26.05,15.52-17.34,11-32.74,24.82-47.06,39.46a122.37,122.37,0,0,0-12.43,14.19c-3.92,5.48-6.73,13-5.86,19.82.5,3.94,1.28,7.75,4.39,10.6,2.83,2.6,6.64,4.64,10.61,4.4,27.86-1.7,53.59-12.52,77.74-25.91,11.18-6.2,22.12-12.85,33-19.5a385.36,385.36,0,0,0,32.67-21.77,224.06,224.06,0,0,0,31.38-28.46c9.43-10.47,18-21.68,26.58-32.86s17.36-22.65,26-34c7.91-10.32,16.41-20.51,22.26-32.19a88.89,88.89,0,0,0,7.59-21,137.56,137.56,0,0,0,2.72-22c.65-13-.18-26.07.55-39.08q.27-4.86.88-9.69l-.54,4c1-7.71,2.73-15.31,3.71-23a61.1,61.1,0,0,0-1.38-22.81c-1.81-7.17-5-14-8-20.68Q576.86,93,572.56,83.4c-2.78-6.22-5.51-12.47-8.38-18.66s-6.7-12.63-12-17.3-11.5-8.17-18-11.25-13.27-6-20-8.77a180.9,180.9,0,0,0-36.5-10.87A125.73,125.73,0,0,0,434.6,16c-27.84,4.64-50.06,23.42-71.36,40.57q-7.89,6.35-15.63,12.87A137.55,137.55,0,0,0,334.28,81.5c-5.16,5.66-9.62,12.21-11.72,19.66A32.66,32.66,0,0,0,324.88,125a25.91,25.91,0,0,0,9.13,9.5c6.59,4.29,16.87,1.55,20.53-5.38a15.33,15.33,0,0,0-5.39-20.52,9.52,9.52,0,0,1-.86-.6l3,2.35a12.39,12.39,0,0,1-1.81-1.81l2.35,3a13.9,13.9,0,0,1-1.52-2.65l1.51,3.58a16.66,16.66,0,0,1-.94-3.54l.53,4a20.88,20.88,0,0,1,0-4.87l-.53,4a23.07,23.07,0,0,1,1.45-5.4l-1.51,3.59a35.36,35.36,0,0,1,4.52-7.63l-2.35,3c5.85-7.42,13.66-13.28,20.89-19.27q12.19-10.11,24.71-19.81l-3,2.34c10-7.72,20.37-15.12,32-20.14L424,50.28A84.49,84.49,0,0,1,445,44.53l-4,.53a105.34,105.34,0,0,1,27.82.19l-4-.53c15.7,2.17,30.84,7.15,45.4,13.28l-3.58-1.51c8.65,3.68,18,7.33,25.55,13l-3-2.35a32.48,32.48,0,0,1,5.74,5.74l-2.35-3A62.18,62.18,0,0,1,539,81.44c2.09,4.61,4.14,9.23,6.21,13.85,4.14,9.23,8.42,18.42,12.38,27.73l-1.51-3.58a70.78,70.78,0,0,1,5.09,16.71l-.54-4a54.52,54.52,0,0,1-.2,14.21l.54-4c-1.08,7.82-2.8,15.52-3.75,23.37a172.78,172.78,0,0,0-1.1,19.83c-.1,13.08.5,26.21-1.22,39.22l.54-4a80.7,80.7,0,0,1-5.22,19.86l1.51-3.58c-5.84,13.69-15.59,25.28-24.56,37-9.79,12.77-19.54,25.57-29.37,38.3l2.35-3c-14.2,18.37-29.12,35.92-47.57,50.19l3-2.34a389.75,389.75,0,0,1-35.36,23.62c-11.93,7.25-23.88,14.53-36.18,21.14-6.89,3.7-13.9,7.16-21.1,10.23l3.58-1.52a144.77,144.77,0,0,1-36.28,10.43l4-.54c-2.79.37-5.59.65-8.4.82l15,15a14.86,14.86,0,0,1,0-3.71l-.53,4a18.13,18.13,0,0,1,1-3.55l-1.51,3.58a28.78,28.78,0,0,1,3.62-6l-2.35,3c5.45-6.95,12.16-13.14,18.52-19.24a260.69,260.69,0,0,1,20.61-18l-3,2.34c13.34-10.3,28.28-17.84,42.42-26.89a293.38,293.38,0,0,0,37.73-28.77,286.31,286.31,0,0,0,57-70.7c8.22-14.41,15.65-29.77,20.55-45.63a101.4,101.4,0,0,0,2.51-51.11,110.15,110.15,0,0,0-18.2-40.67,142.29,142.29,0,0,0-34.71-34.31,105.29,105.29,0,0,0-23.13-12.21,55.44,55.44,0,0,0-29.22-2.72c-8.92,1.54-16.67,6.67-23.84,11.9a168.4,168.4,0,0,1-20.17,12.82q-5.22,2.77-10.67,5.1l3.59-1.52a105.69,105.69,0,0,1-26.31,7.45l4-.53a81,81,0,0,1-20.93.13l4,.53a32.68,32.68,0,0,1-7-1.43l3.59,1.51a5.07,5.07,0,0,1-1-.56l3,2.35a3.7,3.7,0,0,1-.83-.8l2.35,3a3.76,3.76,0,0,1-.55-1l1.51,3.59a5.18,5.18,0,0,1-.23-1.16l.53,4a14.5,14.5,0,0,1,.13-2.46l-.54,4c1-6.2,2-12.4,3-18.59.67-4.11.67-7.84-1.51-11.56a15.33,15.33,0,0,0-9-6.9c-3.84-.87-8.15-.68-11.56,1.52-3.08,2-6.28,5.18-6.9,9Z" transform="translate(-24.89 -10.65)"/><g class="cls-2"><path class="cls-3" d="M368.82,118c5.32-7.91,10.67-15.82,16.5-23.37l-2.35,3a135.92,135.92,0,0,1,23.44-24.19l-3,2.35a91.55,91.55,0,0,1,20.28-11.79l-3.59,1.51a100.93,100.93,0,0,1,25.53-6.88l-4,.53a106.08,106.08,0,0,1,27.52,0l-4-.54a102.41,102.41,0,0,1,26,7.07l-3.58-1.51a93.18,93.18,0,0,1,20.24,11.81l-3-2.34a99.28,99.28,0,0,1,17.53,17.71l-2.35-3a115,115,0,0,1,14.46,25l-1.51-3.59a134.63,134.63,0,0,1,9.16,33.9l-.54-4a155.17,155.17,0,0,1-.29,41l.53-4c-2.66,19.31-8.42,38-16,56l1.51-3.58c-9.86,23.28-22.33,45.72-37.79,65.76l2.34-3c-14.18,18.28-31.07,34.21-49.34,48.34l3-2.34c-22.69,17.48-47.3,32.24-72.22,46.28q-10.69,6-21.44,11.92A15,15,0,0,0,367,421.91c18.87-10.41,37.72-20.87,56-32.27A438.35,438.35,0,0,0,477.64,350a267.71,267.71,0,0,0,45.91-51.2,321.62,321.62,0,0,0,33.68-64.31c8.87-22.5,14.62-46.41,15.45-70.64A161.15,161.15,0,0,0,570,129.57,146,146,0,0,0,560.22,98a118.33,118.33,0,0,0-40.49-50.23c-17-12-37.92-18.16-58.59-19.31a115.71,115.71,0,0,0-60.08,13.2C380.4,52.61,365.24,70.79,352,89.59c-3.09,4.39-6.09,8.84-9.08,13.29-2.09,3.11-2.48,8-1.51,11.56a15.29,15.29,0,0,0,6.89,9c3.48,1.84,7.7,2.77,11.56,1.52a16.54,16.54,0,0,0,9-6.9Z" transform="translate(-24.89 -10.65)"/></g><g class="cls-2"><path class="cls-3" d="M534.52,205.6a12.67,12.67,0,0,0,2.81-1,17.65,17.65,0,0,0,2.69-1.23,20.68,20.68,0,0,0,5.7-5.31,18.76,18.76,0,0,0,2.28-3.43,39.91,39.91,0,0,0,2.37-6,83.23,83.23,0,0,0,2.39-14.54,90.28,90.28,0,0,0-1.64-25.87,99.38,99.38,0,0,0-8.47-24.35,102.43,102.43,0,0,0-14.39-21.45C516.56,88.72,500.78,79,483.85,73.2a116.82,116.82,0,0,0-27-5.48,106.74,106.74,0,0,0-24.1.45,137.17,137.17,0,0,0-15.45,2.71,108.35,108.35,0,0,0-11.93,3.72c-9.36,3.51-18.37,7.85-27.47,12-2,.89-4,1.77-6,2.61l3.59-1.51a108.57,108.57,0,0,1-22.21,7.08l11.56,27.41c16.18-12,32.45-24,50.25-33.49q7.23-3.86,14.77-7.06l-3.59,1.51a134.34,134.34,0,0,1,33.8-9.55l-4,.53a84.23,84.23,0,0,1,21.92-.42l-4-.53A48.31,48.31,0,0,1,486,76.36l-3.58-1.52a55,55,0,0,1,12,7l-3-2.35A65.31,65.31,0,0,1,502.82,91l-2.35-3a85.62,85.62,0,0,1,11,19.13l-1.52-3.59c3.51,8.36,5.76,17.06,8,25.83,1,4.08,2.1,8.15,3.53,12.11a64.6,64.6,0,0,0,6.9,14.48,57.05,57.05,0,0,0,6.66,8.21,61.43,61.43,0,0,1,5.16,5.42l-2.35-3a18.13,18.13,0,0,1,2.12,3.63l-1.51-3.58a50.07,50.07,0,0,1,2.47,9.09q1.06,5.06,2.09,10.12,2,10.16,3.8,20.33,1,5.8,1.94,11.6a14.43,14.43,0,0,0,12.47,10.75,11.27,11.27,0,0,0,6-.27c3.63-1.17,7.13-3.42,9-6.89l1.52-3.59a15.18,15.18,0,0,0,0-8q-2.26-14.12-5-28.15-1.38-7.07-2.88-14.11c-1.11-5.25-2.39-10.77-5.46-15.27a49.82,49.82,0,0,0-6.64-7.84,51.36,51.36,0,0,1-4.54-4.91l2.35,3a43.77,43.77,0,0,1-5.43-9.55l1.51,3.59c-2.81-6.75-4.38-13.91-6.17-21A156.74,156.74,0,0,0,536.47,90a93.68,93.68,0,0,0-14.28-22.46,64.77,64.77,0,0,0-7.6-7.58,77.51,77.51,0,0,0-11.53-8.28A68.72,68.72,0,0,0,490,46a67,67,0,0,0-15.53-2.68c-9.49-.67-19.24.55-28.54,2.33a135,135,0,0,0-23.46,6.86A208.33,208.33,0,0,0,397,64.4c-14.83,8.23-28.63,18.14-42.26,28.18l-5,3.66a11.31,11.31,0,0,0-4.2,3.86,11.34,11.34,0,0,0-2.69,5.1l-.53,4a11.26,11.26,0,0,0,1.29,5.78,7.46,7.46,0,0,0,1.93,3.31,11.31,11.31,0,0,0,4.2,3.86l3.59,1.52a15.18,15.18,0,0,0,8,0c13.75-2.57,26.55-8.8,39.17-14.59,3.34-1.54,6.7-3.06,10.09-4.5L407,106.08a116.49,116.49,0,0,1,29.6-8.43l-4,.54a106.28,106.28,0,0,1,28.17,0l-4-.54A99.1,99.1,0,0,1,482,104.46L478.38,103a89,89,0,0,1,19.32,11.22l-3-2.35A84.48,84.48,0,0,1,509.75,127l-2.35-3a88.21,88.21,0,0,1,11.24,19.26l-1.52-3.58a83.52,83.52,0,0,1,5.81,21.08l-.53-4a76.14,76.14,0,0,1,.06,20l.54-4a40.8,40.8,0,0,1-2.3,10.13l1.51-3.59a11.93,11.93,0,0,1-1.22,2.18l2.34-3a7.16,7.16,0,0,1-1.28,1.3l3-2.34a6,6,0,0,1-1.11.62l3.58-1.51a6.1,6.1,0,0,1-1,.26,16.84,16.84,0,0,0-9,6.89,11.18,11.18,0,0,0-1.78,5.58,11.37,11.37,0,0,0,.26,6c1.18,3.63,3.43,7.13,6.9,9l3.58,1.51a15.21,15.21,0,0,0,8,0Z" transform="translate(-24.89 -10.65)"/></g><path class="cls-3" d="M389.81,389.38a119.48,119.48,0,0,0,7.69-20.54c.78-2.95,1.42-5.94,1.93-8.95.71-4.25,1.28-8.54,1.6-12.84.12-1.52.2-3,.24-4.57a29.15,29.15,0,0,0-.07-4.18,42.65,42.65,0,0,0-.66-4.65,5.78,5.78,0,0,0-.24-.81c-1.26-3.3-2.18-5.37-4.71-7.94a15.76,15.76,0,0,0-4.27-3.18,19.75,19.75,0,0,0-5.23-2,41.1,41.1,0,0,0-5.57-.64c-.74,0-1.48,0-2.23.05-1.61.05-3.22.08-4.83.11-3.31.05-6.61.07-9.92,0q-5.58,0-11.15-.23c-1.82-.07-3.64-.14-5.45-.23-1.65-.08-3.32-.09-4.95-.31l4,.53a15.6,15.6,0,0,1-3.75-1l3.58,1.51a9.92,9.92,0,0,1-2.1-1.2l3,2.34a5.93,5.93,0,0,1-1-1l2.35,3a4.7,4.7,0,0,1-.46-.78l1.51,3.58a4.22,4.22,0,0,1-.24-.86l.53,4a3.7,3.7,0,0,1,0-.94l-.54,4a4.75,4.75,0,0,1,.31-1.1l-1.51,3.59a5.29,5.29,0,0,1,.64-1l-2.34,3a18.2,18.2,0,0,1,2.25-2.14,29.34,29.34,0,0,0,4.27-5.08,26.77,26.77,0,0,0,2.76-5.8,14.69,14.69,0,0,0,.78-2.68c.33-1.7.51-3.44.72-5.15.06-.49.1-1,.13-1.46.06-1,.06-2,0-3-.06-2.1-.24-4.19-.36-6.28a37.64,37.64,0,0,1,.14-7l-.54,4a17.72,17.72,0,0,1,1.17-4.35l-1.52,3.58a19.61,19.61,0,0,1,2.49-4.21l-2.35,3a23.29,23.29,0,0,1,4.06-4l-3,2.35a27.88,27.88,0,0,1,6-3.47l-3.58,1.52a39.6,39.6,0,0,1,10.11-2.61l-4,.53a108.53,108.53,0,0,1,11.82-.72,68.18,68.18,0,0,1,10.5.33l-4-.54a24,24,0,0,1,6,1.57l-3.58-1.52a17.22,17.22,0,0,1,3.59,2.1l-3-2.34a19.83,19.83,0,0,1,3.35,3.44l-2.34-3a75.12,75.12,0,0,1,4.34,6.7l4.64,7.64,9.34,15.38a66,66,0,0,1,4.65,8.12l-1.51-3.58a12.41,12.41,0,0,1,.86,3l-.53-4a7.77,7.77,0,0,1,0,1.67l.53-4a5.58,5.58,0,0,1-.38,1.4l1.51-3.58a5.92,5.92,0,0,1-.56,1l2.34-3a5.58,5.58,0,0,1-1,1l3-2.34a8.65,8.65,0,0,1-1.6.9l3.58-1.52a32.18,32.18,0,0,1-6.21,1.52c-2.4.45-4.82.84-7.24,1.17l4-.54q-3.76.49-7.54.8l14.47,19a55.17,55.17,0,0,0,1.63-9.71,31.9,31.9,0,0,0,0-6.18c-.09-.86-.22-1.71-.33-2.57l-.27-2L414,316.07l-1.17-1.52a11.34,11.34,0,0,0-4.21-3.86c-.4-.22-.8-.43-1.21-.63-1.9-.94-3.88-1.74-5.85-2.52a33.49,33.49,0,0,0-5.18-1.54,79.42,79.42,0,0,0-9.08-1.31c-1.84-.18-3.69-.26-5.54-.29-3.74-.06-7.48.1-11.21.21a82.65,82.65,0,0,1-12.49-.23l4,.54a5.44,5.44,0,0,1-1.26-.33l3.58,1.52a4.39,4.39,0,0,1-.47-.27l3,2.35a2.81,2.81,0,0,1-.39-.38l2.34,3a3,3,0,0,1-.28-.49l1.51,3.58a3.76,3.76,0,0,1-.2-.73l.53,4a27.79,27.79,0,0,1-.08-3.16l0-3.62a50.86,50.86,0,0,1,.06-6.65l-.54,4a7.35,7.35,0,0,1,.41-1.58l-1.51,3.59a5.73,5.73,0,0,1,.56-1l-2.34,3a5.24,5.24,0,0,1,1-1l-3,2.34a8,8,0,0,1,1.69-.94L363,313.79a27.06,27.06,0,0,1,6.3-1.44l-4,.54a48.35,48.35,0,0,1,12.83,0l-4-.53a48,48,0,0,1,12.16,3.32l-3.58-1.51,1,.45a11.24,11.24,0,0,0,5.58,1.78,11.48,11.48,0,0,0,6-.27,16.92,16.92,0,0,0,9-6.89l1.51-3.59a15.18,15.18,0,0,0,0-8l-1.51-3.59a15.24,15.24,0,0,0-5.38-5.38,68.5,68.5,0,0,0-12.08-4.41c-1.47-.35-3-.63-4.46-.84-2.79-.4-5.59-.82-8.41-.95a67.48,67.48,0,0,0-12.84.95,40.4,40.4,0,0,0-4.36.84,15.55,15.55,0,0,0-1.63.54,27.54,27.54,0,0,0-5.08,2.29,20,20,0,0,0-8.86,11.46,6.8,6.8,0,0,0-.24,1c-.28,1.58-.51,3.22-.63,4.82-.05.76,0,1.53,0,2.29l0,5.11c0,1.66-.07,3.36.06,5,.29,3.57.66,5.89,2.47,9a13.63,13.63,0,0,0,2.78,3.5,19.12,19.12,0,0,0,3.25,2.5,2,2,0,0,0,.32.17l3.58,1.51a21.92,21.92,0,0,0,5.63.9c.76.08,1.52.13,2.29.17,2.91.15,5.83.12,8.74.05,6.56-.17,13.16-.6,19.68.26l-4-.53a36.25,36.25,0,0,1,9.09,2.37l-3.59-1.51c1,.41,1.89.86,2.81,1.36L386,323.64a33.31,33.31,0,0,1-.08,7.92l.53-4a32.43,32.43,0,0,1-1,4.56,15,15,0,0,0,0,8,16.71,16.71,0,0,0,6.89,9,14.91,14.91,0,0,0,7.57,2.05c4.43-.35,8.83-.93,13.22-1.57,3.09-.45,6.17-1,9.21-1.68.56-.13,1.11-.27,1.66-.44.3-.1.59-.21.88-.33a43.27,43.27,0,0,0,4.26-1.82c.27-.15.53-.31.79-.48,1.05-.72,2.19-1.65,3.18-2.45l.35-.29a6.43,6.43,0,0,0,.57-.6,22.26,22.26,0,0,0,2.87-3.83,18.6,18.6,0,0,0,2-4.95,21.78,21.78,0,0,0,.62-5.64,31,31,0,0,0-.79-5.5,25.8,25.8,0,0,0-1.4-3.7,39.74,39.74,0,0,0-2.57-5.24l-2.45-4-5-8.28-10-16.44a71.38,71.38,0,0,0-6.84-9.65,34.13,34.13,0,0,0-5.92-5.06,16.4,16.4,0,0,0-3.26-1.85,40.8,40.8,0,0,0-7.06-2.63,60.33,60.33,0,0,0-7.67-1.12,66.08,66.08,0,0,0-8-.21c-7.18.13-14.42.44-21.45,2.05a48.58,48.58,0,0,0-11.07,4.14,25.17,25.17,0,0,0-3.05,1.8,52,52,0,0,0-5.81,4.53,23,23,0,0,0-2.38,2.55,41.08,41.08,0,0,0-4.2,5.83,37.64,37.64,0,0,0-2.81,6.68,41.8,41.8,0,0,0-1.19,7.16c-.57,4.76.32,9.54.29,14.31a27.81,27.81,0,0,1-.21,3.29l.53-4a14.61,14.61,0,0,1-1,3.67l1.51-3.59a11.69,11.69,0,0,1-1.41,2.42l2.34-3c-1.07,1.36-2.53,2.3-3.69,3.57-1,1.06-1.79,2.25-2.63,3.38a4.54,4.54,0,0,0-.36.5,4.63,4.63,0,0,0-.29.54c-.47,1-1.16,2.67-1.54,3.66a3.39,3.39,0,0,0-.15.41,5.17,5.17,0,0,0-.11.54,37.2,37.2,0,0,0-.58,4.33c0,.14,0,.28,0,.41a2.28,2.28,0,0,0,0,.26c.13,1.21.31,2.93.56,4.12,0,.14.07.29.11.43a33.84,33.84,0,0,0,1.63,3.88,13,13,0,0,0,1.63,2.3,18,18,0,0,0,1.76,2.17l.37.32c1.1.89,2.23,1.79,3.39,2.6a27,27,0,0,0,5.33,2.45,15,15,0,0,0,2.24.72,45.79,45.79,0,0,0,6,.88c1.05.11,2.11.14,3.17.19q3.53.18,7.06.3,7.07.24,14.13.23c2.64,0,5.29,0,7.93-.07a53.93,53.93,0,0,1,7.19-.05l-4-.53a6.86,6.86,0,0,1,1.74.45l-3.58-1.51a4.57,4.57,0,0,1,.9.54l-3-2.35a4.92,4.92,0,0,1,.63.66l-2.34-3a6.44,6.44,0,0,1,.47.8l-1.52-3.58a6.57,6.57,0,0,1,.45,1.63l-.54-4a39.42,39.42,0,0,1-.05,7q-.22,3.71-.71,7.4l.53-4a99.82,99.82,0,0,1-6.89,25.32l1.51-3.59c-.54,1.27-1.1,2.52-1.68,3.76a11.11,11.11,0,0,0-1.78,5.58,15.39,15.39,0,0,0,7.16,14.94l3.58,1.52a15.21,15.21,0,0,0,8,0l3.58-1.52a15,15,0,0,0,5.38-5.38Z" transform="translate(-24.89 -10.65)"/><path class="cls-3" d="M378.88,283.94a14.46,14.46,0,0,0,13.71-9.22,11.26,11.26,0,0,0,1.29-5.78l-.53-4a15.11,15.11,0,0,0-3.86-6.62l-3-2.34a14.91,14.91,0,0,0-7.57-2.05,14.5,14.5,0,0,0-13.71,9.22,11.39,11.39,0,0,0-1.29,5.78l.54,4a15,15,0,0,0,3.86,6.62l3,2.34a14.91,14.91,0,0,0,7.57,2.05Z" transform="translate(-24.89 -10.65)"/><path class="cls-3" d="M390.06,283.94a14.46,14.46,0,0,0,13.71-9.22,11.26,11.26,0,0,0,1.29-5.78l-.54-4a15.09,15.09,0,0,0-3.85-6.62l-3-2.34a14.91,14.91,0,0,0-7.57-2.05,14.46,14.46,0,0,0-13.71,9.22,11.29,11.29,0,0,0-1.29,5.78l.53,4a15.05,15.05,0,0,0,3.86,6.62l3,2.34a14.91,14.91,0,0,0,7.57,2.05Z" transform="translate(-24.89 -10.65)"/><path class="cls-3" d="M363.59,243.38a1.5,1.5,0,0,0,0-3,1.5,1.5,0,0,0,0,3Z" transform="translate(-24.89 -10.65)"/><path class="cls-3" d="M361.75,242.4a70.68,70.68,0,0,1,3,19.48,1.5,1.5,0,0,0,3,0,73.74,73.74,0,0,0-3.11-20.28c-.56-1.84-3.45-1.06-2.9.8Z" transform="translate(-24.89 -10.65)"/><path class="cls-3" d="M365.94,243.38a1.5,1.5,0,0,0,0-3,1.5,1.5,0,0,0,0,3Z" transform="translate(-24.89 -10.65)"/><path class="cls-3" d="M365.94,243.38a1.5,1.5,0,0,0,0-3,1.5,1.5,0,0,0,0,3Z" transform="translate(-24.89 -10.65)"/><path class="cls-3" d="M366.16,243.42a83.88,83.88,0,0,0,13.51,10.13,1.5,1.5,0,0,0,1.51-2.59,78.89,78.89,0,0,1-12.89-9.67,1.51,1.51,0,0,0-2.13,2.13Z" transform="translate(-24.89 -10.65)"/><path class="cls-3" d="M383.24,237.18a62.58,62.58,0,0,1-1.92,20.12,1.51,1.51,0,0,0,2.9.8,65.27,65.27,0,0,0,2-20.92,1.5,1.5,0,0,0-3,0Z" transform="translate(-24.89 -10.65)"/><path class="cls-3" d="M383.83,240.69a10.45,10.45,0,0,1,4.17,1.69,16.52,16.52,0,0,1,3.37,3.13A44.87,44.87,0,0,1,396.6,254l3.52,6.81a1.5,1.5,0,1,0,2.59-1.52c-1.91-3.7-3.72-7.49-5.85-11.08a26.11,26.11,0,0,0-6.92-8.11,13.26,13.26,0,0,0-5.31-2.29,1.54,1.54,0,0,0-1.84,1.05,1.52,1.52,0,0,0,1,1.85Z" transform="translate(-24.89 -10.65)"/><path class="cls-3" d="M364.38,246a39.84,39.84,0,0,0,4.36,15.47,1.5,1.5,0,1,0,2.59-1.51,36.06,36.06,0,0,1-3.95-14,1.54,1.54,0,0,0-1.5-1.5,1.51,1.51,0,0,0-1.5,1.5Z" transform="translate(-24.89 -10.65)"/><path class="cls-3" d="M380.1,76.42a38.3,38.3,0,0,0-11.42,5.87c-3.66,2.75-7.23,5.64-10.81,8.5l-16.81,13.43a19.43,19.43,0,0,0-7.52,14.87,17.87,17.87,0,0,0,2.29,9.07A17.11,17.11,0,0,0,351.26,137,21.19,21.19,0,0,0,357,136c.9-.31,1.77-.71,2.64-1.08s1.81-.73,2.68-1.17a32.4,32.4,0,0,0,6.08-4.36,19,19,0,0,0,2.67-2.78,44.44,44.44,0,0,0,4.4-6.18,53.55,53.55,0,0,0,3.07-7,27.92,27.92,0,0,0,1.09-3.8,50.65,50.65,0,0,0,.79-5.62,10.78,10.78,0,0,0,0-2.2,39.22,39.22,0,0,0-.67-4.69,7.86,7.86,0,0,0-.27-.82,30,30,0,0,0-1.82-4.19l-.3-.43a34.3,34.3,0,0,0-2.57-3.3,15.87,15.87,0,0,0-4.3-3.26,19.83,19.83,0,0,0-9.18-2.43,6,6,0,0,0-.85,0,40.83,40.83,0,0,0-4.68.65,28.7,28.7,0,0,0-5.33,2.09A29.13,29.13,0,0,0,344,89.92a60.44,60.44,0,0,0-8.44,9.63,34,34,0,0,0-5.78,10.81,5.45,5.45,0,0,0-.18.8c-.24,1.3-.42,2.83-.56,4.15,0,.15,0,.31-.05.47a14.94,14.94,0,0,0,.74,5.43,24.68,24.68,0,0,0,1.77,4.06,13.79,13.79,0,0,0,4.25,4.62,13.59,13.59,0,0,0,5.66,3,16.25,16.25,0,0,0,4.95.72c3.74,0,5.87-.93,9.16-2.4a10.29,10.29,0,0,0,1.83-1,31.79,31.79,0,0,0,4.37-3.52c.24-.25.46-.51.67-.77a42.6,42.6,0,0,0,2.88-3.8,29.87,29.87,0,0,0,2.27-5.06,9.29,9.29,0,0,0,.53-1.94,24.85,24.85,0,0,0,.58-5.73,23.21,23.21,0,0,0-1-5.78,42.54,42.54,0,0,0-1.79-4.23,8.46,8.46,0,0,0-.44-.77c-.83-1.25-1.82-2.45-2.76-3.6a7.65,7.65,0,0,0-.72-.78,38.57,38.57,0,0,0-3.57-2.8,7.31,7.31,0,0,0-.87-.58A20.82,20.82,0,0,0,346.85,88a4.38,4.38,0,0,0-.52,0c-1.33.13-2.85.34-4.16.56a6.51,6.51,0,0,0-1,.23,23.94,23.94,0,0,0-9.45,5.57,13,13,0,0,0-1.18,1.27,53.31,53.31,0,0,0-3.39,4.49,28.13,28.13,0,0,0-1.87,3.46c-1.2,2.58-2.33,5.19-3.33,7.85a29.33,29.33,0,0,0-1.4,4.86,35.32,35.32,0,0,0-.81,8.53,11.23,11.23,0,0,0,1.29,5.77,13.46,13.46,0,0,0,7.93,7.93,11.37,11.37,0,0,0,5.78,1.3l4-.54a15,15,0,0,0,6.62-3.86l2.34-3a14.94,14.94,0,0,0,2-7.57,18.58,18.58,0,0,1,.13-3.65l-.53,4a30.67,30.67,0,0,1,2.23-7.48l-1.52,3.58a32.71,32.71,0,0,1,3.83-7.17l-2.35,3a12.67,12.67,0,0,1,2.05-2.09l-3,2.34a7.86,7.86,0,0,1,1.71-1l-3.58,1.51a6.84,6.84,0,0,1,1.61-.43l-4,.54a6.45,6.45,0,0,1,1.39,0l-4-.54a6.51,6.51,0,0,1,1.66.46l-3.59-1.52a7.44,7.44,0,0,1,1.49.89l-3-2.35a8.81,8.81,0,0,1,1.35,1.38l-2.34-3a8,8,0,0,1,1,1.68l-1.51-3.58a7.63,7.63,0,0,1,.46,1.7l-.54-4a7.88,7.88,0,0,1,0,2l.53-4a8.62,8.62,0,0,1-.6,2.11l1.52-3.58a10.28,10.28,0,0,1-1.23,2.07l2.35-3a10.8,10.8,0,0,1-1.86,1.84l3-2.35a10.07,10.07,0,0,1-2,1.16L344,103.8a5.47,5.47,0,0,1-1.2.33l4-.53a4.28,4.28,0,0,1-.8,0l4,.54a3.7,3.7,0,0,1-.57-.16l3.58,1.52a3.14,3.14,0,0,1-.55-.34l3,2.35a2.83,2.83,0,0,1-.3-.3l2.34,3a2.91,2.91,0,0,1-.34-.59l1.51,3.58a4.12,4.12,0,0,1-.18-.69l.54,4a4.53,4.53,0,0,1,0-1.22l-.54,4a8.33,8.33,0,0,1,.54-1.89L357.55,121a31.73,31.73,0,0,1,4.2-6.63l-2.35,3a38.55,38.55,0,0,1,6.41-6.73l-3,2.35a14,14,0,0,1,3-1.77l-3.59,1.52a9.07,9.07,0,0,1,2.09-.6l-4,.53a6.77,6.77,0,0,1,1.35,0l-4-.53a5,5,0,0,1,1.12.29l-3.59-1.51a4.32,4.32,0,0,1,.89.5l-3-2.34a4.83,4.83,0,0,1,.76.74l-2.34-3a5.4,5.4,0,0,1,.6,1l-1.51-3.59a6.28,6.28,0,0,1,.4,1.53l-.53-4a11,11,0,0,1-.05,2.75l.53-4a24.53,24.53,0,0,1-1.72,6l1.51-3.58a24.44,24.44,0,0,1-3.11,5.41l2.35-3a19.44,19.44,0,0,1-3.29,3.31l3-2.35a15.92,15.92,0,0,1-3.38,2l3.58-1.51a10.2,10.2,0,0,1-2.36.71l4-.53a4.59,4.59,0,0,1-1,0l4,.54a2.78,2.78,0,0,1-.56-.17l3.58,1.52a3.18,3.18,0,0,1-.44-.26l3,2.34a2.56,2.56,0,0,1-.43-.44l2.35,3a2.94,2.94,0,0,1-.3-.55l1.51,3.59a3.55,3.55,0,0,1-.19-.78l.53,4a5.61,5.61,0,0,1,0-.82l-.53,4a3.71,3.71,0,0,1,.24-.94l-1.51,3.58a6.07,6.07,0,0,1,.6-1l-2.34,3a25.86,25.86,0,0,1,4.6-4l5.24-4.19,10.6-8.46c1.9-1.52,3.79-3.06,5.72-4.55l-3,2.35a32.35,32.35,0,0,1,6.92-4.29l-3.58,1.51c.53-.22,1.06-.42,1.6-.59a11.23,11.23,0,0,0,5.1-2.69,13.43,13.43,0,0,0,5.65-9.78,11.37,11.37,0,0,0-.27-6L397,83.31a15.15,15.15,0,0,0-5.38-5.38l-3.59-1.51a15,15,0,0,0-8,0Z" transform="translate(-24.89 -10.65)"/><path class="cls-3" d="M347.83,115.62a38,38,0,0,0-3.8-5c-.16-.17-.32-.33-.49-.48a38,38,0,0,0-3.33-2.59,5.42,5.42,0,0,0-.56-.37l-.25-.14a39,39,0,0,0-3.77-1.59,4.13,4.13,0,0,0-.5-.15l-.23,0c-.86-.16-3.21-.49-4.07-.55a4.82,4.82,0,0,0-.54,0l-.23,0c-1,.09-3.15.35-4.14.56a4.84,4.84,0,0,0-.51.14c-.62.2-1.87.78-1.93.81s-1.35.52-1.93.82a3.18,3.18,0,0,0-.44.26c-.55.37-2.59,1.94-3.09,2.39a3.07,3.07,0,0,0-.26.25l-.14.16c-.36.43-2.11,2.63-2.38,3.09a22.68,22.68,0,0,0-1.69,3.9l-.12.42c-.17.75-.5,3.35-.54,4.1a4.51,4.51,0,0,0,0,.52,39.63,39.63,0,0,0,.56,4.1c0,.1,0,.2.07.31a3.31,3.31,0,0,0,.14.41c.4,1.08,1.07,2.63,1.55,3.68a11.53,11.53,0,0,0,.69,1.24c.21.34.44.68.68,1,1,1.33,2,2.66,3.05,3.92a16.62,16.62,0,0,0,1.77,1.79c1.23,1.05,2.55,2,3.84,3,.35.26.7.52,1.07.75a17.66,17.66,0,0,0,2.21,1.22,30.39,30.39,0,0,0,8.33,2.88,29,29,0,0,0,6.53.62c1.45-.14,3-.32,4.42-.59a6,6,0,0,0,.73-.18l.31-.11c1-.39,2.69-1.06,3.68-1.55a5.77,5.77,0,0,0,.68-.4c.56-.37,1.4-1.07,1.67-1.28s1.16-.85,1.67-1.3c.16-.14.32-.3.47-.46.53-.59,1-1.29,1.49-1.89s1.09-1.35,1.56-2.07A14.67,14.67,0,0,0,361.2,135a40.15,40.15,0,0,0,2.22-5.69,44.43,44.43,0,0,0,.95-6.17,32.43,32.43,0,0,0-.58-8.61,31.59,31.59,0,0,0-2.78-8.12,30.22,30.22,0,0,0-4.74-7,14.06,14.06,0,0,0-1.7-1.75c-1.24-1-2.54-2.06-3.87-3a10.37,10.37,0,0,0-1.15-.7A42,42,0,0,0,345,92.08a7.83,7.83,0,0,0-1.25-.38c-.82-.17-1.74-.25-2.53-.36s-1.63-.26-2.44-.31c-.21,0-.42,0-.62,0a40.19,40.19,0,0,0-4.52.59,6.14,6.14,0,0,0-1,.27,42.28,42.28,0,0,0-4,1.7A5.73,5.73,0,0,0,328,94c-1.11.78-2.27,1.69-3.31,2.57a4.47,4.47,0,0,0-.45.42c-.12.13-.23.27-.34.41a38.67,38.67,0,0,0-2.64,3.47,8.5,8.5,0,0,0-.55,1,45,45,0,0,0-1.89,4.61,18.91,18.91,0,0,0-.58,2.42c-.63,3.38-1.08,6.8-1.42,10.22a41.6,41.6,0,0,0-.28,6.31,34.14,34.14,0,0,0,1,6.89,24.29,24.29,0,0,0,1.18,3.07,24.15,24.15,0,0,0,1.28,2.84,34.32,34.32,0,0,0,2.91,3.87,9.39,9.39,0,0,0,.84.94,19.32,19.32,0,0,0,4.88,3.58c1.28.6,2.65,1.2,4,1.68a4.13,4.13,0,0,0,.5.15,26.69,26.69,0,0,0,5,.68l4-.53,3.58-1.51,3-2.35a11.33,11.33,0,0,0,3.1-4.83,7.4,7.4,0,0,0,1-3.78,7.51,7.51,0,0,0,0-4,7.43,7.43,0,0,0-1-3.79,11.35,11.35,0,0,0-3.1-4.82c-.46-.54-.91-1.08-1.34-1.64l2.34,3a59.31,59.31,0,0,1-7.44-13.22l1.52,3.59c-1-2.36-1.89-4.76-2.75-7.17-.41-1.18-.82-2.35-1.22-3.53a21.15,21.15,0,0,1-1.14-3.89l.53,4a5.78,5.78,0,0,1,0-1.1l-.53,4a4.63,4.63,0,0,1,.22-.81l-1.51,3.58a7,7,0,0,1,.86-1.44L336,112c2-2.65,4.24-5.19,6.36-7.78a11.26,11.26,0,0,0,3.11-4.83,11.24,11.24,0,0,0,1.29-5.78,11.23,11.23,0,0,0-1.29-5.77A11.26,11.26,0,0,0,342.33,83l-3-2.35a15,15,0,0,0-7.57-2l-4,.54A15,15,0,0,0,321.12,83c-3,3.62-6.11,7.18-8.84,11a17.12,17.12,0,0,0-2.38,5.25,17.84,17.84,0,0,0-.36,2.41c-.09.66-.28,1.65-.31,2.44a23.72,23.72,0,0,0,.64,5.09,33.29,33.29,0,0,0,1.38,4.35c1,2.9,2,5.78,3.17,8.61a108.16,108.16,0,0,0,5.19,11.45,66.52,66.52,0,0,0,7.93,11.2l10.61-25.61-.53,0,4,.53a5.91,5.91,0,0,1-1.35-.38l3.59,1.51a6.72,6.72,0,0,1-1.37-.8l3,2.34a8.37,8.37,0,0,1-1.39-1.4l2.35,3a8.57,8.57,0,0,1-1.08-1.88l1.51,3.59a12.17,12.17,0,0,1-.74-2.83l.54,4a40.51,40.51,0,0,1,.47-10.31l-.54,4a28.36,28.36,0,0,1,1.5-6.95l-1.51,3.59a8.16,8.16,0,0,1,.88-1.55l-2.34,3a5.85,5.85,0,0,1,1-1l-3,2.35a5.25,5.25,0,0,1,.94-.55l-3.58,1.51a5.75,5.75,0,0,1,1.35-.37l-4,.54a6.75,6.75,0,0,1,1.42,0l-4-.53a8.39,8.39,0,0,1,2,.54l-3.59-1.52a11.79,11.79,0,0,1,2.31,1.34l-3-2.34a14.45,14.45,0,0,1,2.43,2.45L333,118a16.89,16.89,0,0,1,2.15,3.67l-1.51-3.58a18.7,18.7,0,0,1,1.26,4.63l-.54-4a17.86,17.86,0,0,1,0,4.62l.54-4a16.67,16.67,0,0,1-1.11,4.11l1.52-3.58a12.75,12.75,0,0,1-1.54,2.74l2.35-3a6,6,0,0,1-.93,1l3-2.34a4.36,4.36,0,0,1-.83.5l3.58-1.51a5.4,5.4,0,0,1-1.25.35l4-.54a11,11,0,0,1-2.86,0l4,.54a17,17,0,0,1-4.32-1.18l3.58,1.52a18.07,18.07,0,0,1-3.86-2.28l3,2.35a17.36,17.36,0,0,1-2.9-2.91l2.34,3a12.61,12.61,0,0,1-1.63-2.64l1.51,3.58a4,4,0,0,1-.23-.82l.53,4a2.66,2.66,0,0,1,0-.63l-.54,4a3.45,3.45,0,0,1,.12-.43L341,128.64a2.71,2.71,0,0,1,.21-.37l-2.35,3a3.09,3.09,0,0,1,.4-.41l-3,2.35a3.14,3.14,0,0,1,.64-.37l-3.59,1.51a3.76,3.76,0,0,1,.73-.2l-4,.53a4,4,0,0,1,.92,0l-4-.53a3.1,3.1,0,0,1,.74.19l-3.58-1.51a5.46,5.46,0,0,1,1,.58l-3-2.35a8.55,8.55,0,0,1,1.23,1.25l-2.35-3c.36.47.69,1,1,1.46a16.71,16.71,0,0,0,9,6.89,11.28,11.28,0,0,0,6,.27,11.11,11.11,0,0,0,5.58-1.78l3-2.34a15.09,15.09,0,0,0,3.85-6.62l.54-4a14.91,14.91,0,0,0-2.05-7.57Z" transform="translate(-24.89 -10.65)"/><path class="cls-3" d="M357.77,71.22a65.19,65.19,0,0,0-29.45,15.71l23.56,18.18q3.42-5.31,7.27-10.32l-2.35,3a159,159,0,0,1,28.51-28.45l-3,2.35a164,164,0,0,1,35.91-20.94l-3.58,1.51a157.9,157.9,0,0,1,39.44-10.84l-4,.53a125,125,0,0,1,33-.42l-4-.53A81.94,81.94,0,0,1,499,46.42l-3.58-1.51a89.15,89.15,0,0,1,19.75,11.63l-3-2.35A109.5,109.5,0,0,1,531,73.32l-2.35-3a127.94,127.94,0,0,1,16.4,28.28L543.57,95c6.44,15.44,10.16,31.81,12.39,48.34l-.53-4c1.77,13.42,2.61,26.93,3.12,40.44.52,13.76,1.19,27.67-.62,41.36l.53-4a92.76,92.76,0,0,1-6.39,23l1.51-3.58c-5.27,12.41-11.76,24.43-18.17,36.29a243.51,243.51,0,0,1-20.83,32.92l2.35-3A153.66,153.66,0,0,1,489.35,330l3-2.34c-16.95,13.06-34.76,25.07-52.19,37.48s-35.06,25.05-52.65,37.49c-9.27,6.55-18.75,12.87-29.24,17.3l3.58-1.51a87.46,87.46,0,0,1-21.58,5.92l4-.54a74.67,74.67,0,0,1-16.37.33l12.95,22.57c4.68-10.95,9.47-22,16.73-31.54l-2.34,3a66.42,66.42,0,0,1,11.37-11.42l-3,2.35a154.5,154.5,0,0,1,16.52-10.72l19-11.11L437.23,365l-18.18-23.56q-32.85,29.12-62.86,61.2-8.49,9.09-16.72,18.39c-4.29,4.83-6.08,12.38-2.35,18.18a18,18,0,0,0,5.38,5.38c2.81,1.81,8.37,2.85,11.56,1.51a114.41,114.41,0,0,0,18.77-9.67,173.6,173.6,0,0,0,16.78-12.8c9.24-7.88,17.73-16.59,26.59-24.89,5.05-4.74,10.24-9.33,15.72-13.57l-3,2.34c20.83-16,45.16-26.6,65.21-43.71a113.35,113.35,0,0,0,16.37-17.68l1.52-3.59a11.37,11.37,0,0,0,.26-6,14.24,14.24,0,0,0-4.12-8.61,15.46,15.46,0,0,0-18.18-2.35l-75.15,42.82-21.47,12.23,18.18,23.56c11.86-10.08,23.75-20.18,34.69-31.27A213.06,213.06,0,0,0,461.7,335.5c4.65-5.88,9-11.88,15-16.52l-3,2.34c6-4.57,12.57-8.35,18.23-13.41a66.56,66.56,0,0,0,12.54-15.61c6.36-10.65,10.14-22.73,13.92-34.48,2-6.24,4-12.48,6.59-18.54l-1.51,3.59c4.1-9.64,9.2-18.79,13.06-28.55a67.21,67.21,0,0,0,4.63-31.26,112.64,112.64,0,0,0-7.47-30.58c-3.71-9.26-8-18.19-14-26.2a98.94,98.94,0,0,0-21.55-21.54,90.19,90.19,0,0,0-74.7-13.28c-10.53,3-19.65,8.17-28.18,14.9-7.57,6-14.13,13.1-21.72,19l3-2.34a56.1,56.1,0,0,1-12.25,7.37l3.58-1.51a40.82,40.82,0,0,1-9.89,2.63l4-.54a36.07,36.07,0,0,1-8.81,0l4,.54a32.25,32.25,0,0,1-7.15-1.9l3.59,1.51a27.32,27.32,0,0,1-5.91-3.4l3,2.34a27.74,27.74,0,0,1-4.57-4.62l2.35,3a27.28,27.28,0,0,1-3.23-5.59l1.51,3.58a24.72,24.72,0,0,1-1.53-5.6l.53,4a22.61,22.61,0,0,1,0-5.2l-.54,4a21.93,21.93,0,0,1,1.39-5.15l-1.51,3.58a26.31,26.31,0,0,1,3.32-5.62l-2.35,3a42.5,42.5,0,0,1,7-6.8l-3,2.35C357.88,109,366.8,104,375.37,99a246.8,246.8,0,0,1,29-15l-3.58,1.51.71-.29c3.77-1.59,6.81-3.21,9-6.9A15.3,15.3,0,0,0,412,66.73c-1.17-3.63-3.42-7.13-6.89-9-3.3-1.75-7.94-3-11.56-1.51a306,306,0,0,0-41.85,22c-5.52,3.38-11.16,6.65-16.32,10.55-6.23,4.72-12.47,10.1-15.84,17.36-3.86,8.34-5.21,17.46-2.38,26.4a41.91,41.91,0,0,0,15.39,21.11c6.69,5,15.39,7.28,23.66,7.61,8.84.36,17.48-2.07,25.38-5.88,13.75-6.64,23.52-19,35.38-28.21l-3,2.34a64,64,0,0,1,13.93-8.16l-3.59,1.52a67.07,67.07,0,0,1,16.21-4.38l-4,.54a75,75,0,0,1,19.85,0l-4-.53a79,79,0,0,1,19.31,5.27L468,122.3a76,76,0,0,1,16.79,9.76l-3-2.35a78.74,78.74,0,0,1,13.46,13.66l-2.35-3a99.93,99.93,0,0,1,12.56,21.8L504,158.56a105.81,105.81,0,0,1,7.49,26.56l-.53-4A60,60,0,0,1,511,195.8l.53-4a66.57,66.57,0,0,1-4.79,16.52l1.51-3.58c-5,11.85-11.3,23.05-15.57,35.25-3.52,10-6.31,20.32-10.41,30.15l1.51-3.58a75.24,75.24,0,0,1-9.11,16.29l2.34-3a51.81,51.81,0,0,1-9.26,9.28l3-2.35c-6.25,4.74-13.12,8.62-18.87,14-5.06,4.73-9,10.52-13.34,15.86a273.79,273.79,0,0,1-29.77,30.29c-6.09,5.44-12.32,10.73-18.54,16-2.68,2.27-4.55,7.16-4.4,10.6a15.48,15.48,0,0,0,3.22,9.09,15.05,15.05,0,0,0,19.35,3.87l75.15-42.82,21.47-12.23-20.52-20.52-.39.51,2.35-3A104.16,104.16,0,0,1,468,326.53l3-2.34c-13.85,10.63-29.39,18.71-44,28.14a212.24,212.24,0,0,0-23.27,17.3c-6.59,5.67-12.82,11.74-19.07,17.77a279.88,279.88,0,0,1-22.19,19.83l3-2.34a104,104,0,0,1-22.36,13.49l3.58-1.51-.59.25,14.59,25.07q29.1-32.83,61.2-62.86,9.08-8.49,18.38-16.73a15,15,0,0,0,4.4-10.6,15.49,15.49,0,0,0-3.23-9.09A15,15,0,0,0,422.08,339L371.25,368.8c-7.76,4.54-15.65,8.92-22.8,14.39a79.29,79.29,0,0,0-11.81,10.6,99.43,99.43,0,0,0-9.22,12.38c-5,8-8.75,16.71-12.45,25.37a15,15,0,0,0,0,15.14c2.86,4.89,7.54,6.94,12.95,7.43a89.55,89.55,0,0,0,41.26-6.5,132.85,132.85,0,0,0,20.29-10.21c5.59-3.47,11-7.27,16.31-11.08l69.68-49.62c22.27-15.86,45.72-30.86,62.68-52.7A251.56,251.56,0,0,0,560,290.55c6.09-11.08,12-22.37,17.34-33.84A124.11,124.11,0,0,0,585.5,235a123.74,123.74,0,0,0,3.31-23.15c.78-13.43,0-27-.62-40.43-1.34-27.06-4.27-54.78-14-80.26-8.42-22-21.5-42.88-40.14-57.63-10.07-8-20.8-14.26-33.06-18.27C487.64,10.91,473.09,10,459.17,11A174.64,174.64,0,0,0,390.22,31a169.94,169.94,0,0,0-52.88,43.42A188.62,188.62,0,0,0,326,90c-4.06,6.29-1.79,15,3.86,19.35,6.05,4.67,14.11,3.91,19.7-1.17,1-.93,2-1.81,3.13-2.66l-3,2.35a51.76,51.76,0,0,1,11.21-6.54l-3.58,1.51a53.78,53.78,0,0,1,8.48-2.66c7.67-1.71,12.89-11,10.48-18.45a15.34,15.34,0,0,0-18.45-10.48Z" transform="translate(-24.89 -10.65)"/><path class="cls-3" d="M396.06,73.73c-.18.45-.37.91-.56,1.36L397,71.51A95.2,95.2,0,0,1,384.69,92.6l2.34-3a94.38,94.38,0,0,1-10.68,11.66,11.23,11.23,0,0,0-3.1,4.83,11.26,11.26,0,0,0-1.29,5.78l.53,4a11.34,11.34,0,0,0,2.69,5.1,7.54,7.54,0,0,0,2.69,2.69,11.32,11.32,0,0,0,5.1,2.68l4,.54a14.94,14.94,0,0,0,7.57-2,78.37,78.37,0,0,0,7.71-6.38,46,46,0,0,0,4.26-4.78,11.14,11.14,0,0,0,3.1-4.83,11.33,11.33,0,0,0,1.3-5.77l-.54-4a11.32,11.32,0,0,0-2.68-5.1,7.49,7.49,0,0,0-2.7-2.69,11.23,11.23,0,0,0-5.1-2.69l-4-.53a14.87,14.87,0,0,0-7.57,2c-7.3,4.11-14.41,8.43-20.72,14a45.18,45.18,0,0,0-4.29,4.35,11.23,11.23,0,0,0-3.1,4.83,11.26,11.26,0,0,0-1.29,5.78l.53,4a11.32,11.32,0,0,0,2.69,5.11,7.54,7.54,0,0,0,2.69,2.69,11.32,11.32,0,0,0,5.1,2.68l4,.54A14.94,14.94,0,0,0,381.5,132q14-8.86,28.46-17.14t29.16-15.92q8.28-4.29,16.65-8.38A11.28,11.28,0,0,0,460,86.66a11.23,11.23,0,0,0,2.69-5.1,11.37,11.37,0,0,0,.26-6A11.18,11.18,0,0,0,461.15,70l-2.34-3a15,15,0,0,0-6.62-3.86l-4-.53a14.9,14.9,0,0,0-7.57,2q-14.92,7.3-29.53,15.22T382.24,96.3q-8,4.78-15.88,9.76l18.17,23.56a48.11,48.11,0,0,1,7.06-6.62l-3,2.34A122.36,122.36,0,0,1,403.47,116L385.29,92.41a48.22,48.22,0,0,1-8.42,8.41l3-2.35-.53.41,18.18,23.56a116.54,116.54,0,0,0,13.29-15,93.8,93.8,0,0,0,8.83-13.87c2-3.84,3.69-7.82,5.31-11.83a11.37,11.37,0,0,0,.27-6,11.21,11.21,0,0,0-1.78-5.57,11.21,11.21,0,0,0-3.87-4.21,11.23,11.23,0,0,0-5.1-2.69l-4-.53a14.87,14.87,0,0,0-7.57,2l-3,2.35a15,15,0,0,0-3.86,6.62Z" transform="translate(-24.89 -10.65)"/><path class="cls-3" d="M523.16,65.67c-13.77-4.42-27.49-9-41.31-13.25A70,70,0,0,0,471.77,50a65,65,0,0,0-8.35-.9,48.08,48.08,0,0,0-8.8.87c-7.27,1.25-13.93,5.23-19.74,9.62a109.07,109.07,0,0,0-10.17,8.16,32.11,32.11,0,0,0-8.56,13.86,14.6,14.6,0,0,0,2.68,13.08A11.34,11.34,0,0,0,423,98.56a14.94,14.94,0,0,0,7.57,2,114.78,114.78,0,0,0,21-4,113.18,113.18,0,0,0,19.63-8.11c1.19-.62,2.37-1.25,3.52-2,.53-.33,1-.69,1.54-1.06a28.68,28.68,0,0,0,4.1-3.35c4.67-5.13,7.07-12.36,4.83-19.15-3-9.3-11.6-14.05-20.74-15.6A169.75,169.75,0,0,0,442,45a43.94,43.94,0,0,0-11.08.88,22.22,22.22,0,0,0-13.62,9.61A21.59,21.59,0,0,0,415,72.75a32.17,32.17,0,0,0,1.9,4.67,12.14,12.14,0,0,0,1,1.68,29.41,29.41,0,0,0,7.66,7.71,35,35,0,0,0,6.93,3.78c3.8,1.68,7.64,3.29,11.55,4.67a110.31,110.31,0,0,0,19.61,4.89,132.21,132.21,0,0,0,23.92,1.76c3.74-.11,8-1.56,10.61-4.39l2.34-3a11.11,11.11,0,0,0,1.78-5.58,14.33,14.33,0,0,0-1.78-9.56l-2.34-3a15.11,15.11,0,0,0-6.62-3.86,73.11,73.11,0,0,0-18.12-4.2,60.24,60.24,0,0,0-15.06,0l-4,.53a11.34,11.34,0,0,0-5.1,2.69c-2.34,1.8-4.91,4.74-5.38,7.79a31.71,31.71,0,0,0-.6,5,20.41,20.41,0,0,0,.29,2.3,20.35,20.35,0,0,0,.35,2.44,19.55,19.55,0,0,0,3.57,6.86,21.42,21.42,0,0,0,7.93,6.54,47.9,47.9,0,0,0,9.25,3.23q3.58.86,7.2,1.48a138.49,138.49,0,0,0,33.27,2.06,151.92,151.92,0,0,0,20.47-2.8l3.59-1.51,3-2.35,2.35-3a11.21,11.21,0,0,0,1.78-5.58,7.71,7.71,0,0,0,0-4,7.51,7.51,0,0,0-1-3.78c-1.18-2.8-3.3-5.8-6.13-7.17-4.94-2.39-10.45-4.42-16-4.06a21.94,21.94,0,0,0-10.65,3.05,20.31,20.31,0,0,0-8.87,11.72,20.52,20.52,0,0,0,1.09,13.49,17.45,17.45,0,0,0,1.87,3.65,24.34,24.34,0,0,0,6.67,6.67c5.17,3.73,12,4.38,18.19,4.47a15.15,15.15,0,0,0,10.6-4.39l2.35-3a11.21,11.21,0,0,0,1.78-5.58,14.34,14.34,0,0,0-1.78-9.56c-2-3.12-5.17-6.2-9-6.89a35.86,35.86,0,0,0-12-.46,37.85,37.85,0,0,0-5,.87A44.81,44.81,0,0,0,502,91.37,34.68,34.68,0,0,0,493.78,97a21.33,21.33,0,0,0-2.26,2.3,39.21,39.21,0,0,0-4.17,5.67,23.49,23.49,0,0,0-2.6,17.51,18.66,18.66,0,0,0,2.52,5.7,22.56,22.56,0,0,0,4.27,5,30.81,30.81,0,0,0,5.34,3.76,53.9,53.9,0,0,0,6.27,2.63,57.77,57.77,0,0,0,8,2.11,77.33,77.33,0,0,0,22.3,1.35,18.31,18.31,0,0,0,7.57-2,14.87,14.87,0,0,0,6.14-7.17,7.54,7.54,0,0,0,1-3.79,7.71,7.71,0,0,0,0-4,7.51,7.51,0,0,0-1-3.78,11.23,11.23,0,0,0-3.1-4.83,10.45,10.45,0,0,0-1.94-1.61,11.51,11.51,0,0,0-2-1.45,18,18,0,0,0-8.16-2.17,18.52,18.52,0,0,0-12.71,5,19.41,19.41,0,0,0-5.24,8.76,37.65,37.65,0,0,0-1,7.48,59.83,59.83,0,0,0-.08,9,43.82,43.82,0,0,0,2.21,11.9,49.74,49.74,0,0,0,2.81,6.39,40.7,40.7,0,0,0,4.14,5.77,27.06,27.06,0,0,0,8.21,6.77,23,23,0,0,0,10.12,3.06c6.14.18,11.33-2.92,14.7-7.94,2.68-4,3.3-9.67,3.68-14.3A43.7,43.7,0,0,0,553,129.63a15.48,15.48,0,0,0-5.38-5.38L544,122.73a11.37,11.37,0,0,0-6-.26,7.4,7.4,0,0,0-3.78,1,7.5,7.5,0,0,0-3.31,1.93c-2.34,1.81-4.91,4.74-5.38,7.79a181.07,181.07,0,0,0-2.35,28.09,181,181,0,0,0,2.52,28.08l28.93-8L548,148.91l-1.52-3.59a11.31,11.31,0,0,0-3.86-4.2,14.24,14.24,0,0,0-9.09-3.22,17.74,17.74,0,0,0-7.57,2,15.24,15.24,0,0,0-6.89,9c-3.87,15-2.92,30.83-2.9,46.15l.06,43.82,0,25h30a177.47,177.47,0,0,1,1.39-30.74l-.54,4q.93-6.76,2.34-13.43l-29.46-4a330.09,330.09,0,0,1,2.18,46.73,15.19,15.19,0,0,0,4.39,10.61l3,2.34a11.11,11.11,0,0,0,5.58,1.78,14.34,14.34,0,0,0,9.56-1.78l3-2.34a14.94,14.94,0,0,0,3.85-6.62q3.39-9.39,7.25-18.59l-1.51,3.59q4.65-11,10-21.75L540,222.16q-1.32,3.3-2.69,6.56l1.51-3.58a329.47,329.47,0,0,1-27,50.89q-4.5,6.93-9.35,13.64l27.95,7.58-1.12-26.75a15.55,15.55,0,0,0-3.22-9.08,14.38,14.38,0,0,0-7.8-5.38,17.87,17.87,0,0,0-8,0,15.17,15.17,0,0,0-9,6.89l-27.41,50.4a15.76,15.76,0,0,0-1.51,11.55,15.32,15.32,0,0,0,6.9,9c3.48,1.84,7.69,2.76,11.55,1.51a16,16,0,0,0,9-6.89,89,89,0,0,1,5.43-7.89l-2.35,3a90.41,90.41,0,0,1,16-16l-3,2.34q2.24-1.73,4.59-3.31a16,16,0,0,0,6.89-9,15.34,15.34,0,0,0-1.51-11.56c-2.07-3.21-5.14-6-9-6.9s-8.22-.74-11.55,1.52a106.55,106.55,0,0,0-31.38,32.56l25.91,15.14,27.41-50.39-28-7.58,1.12,26.75a15.41,15.41,0,0,0,3.22,9.08,14.35,14.35,0,0,0,7.79,5.38,17.91,17.91,0,0,0,8,0c3.92-.89,6.72-3.79,9-6.89a329.87,329.87,0,0,0,32.15-55q4.47-9.72,8.4-19.66a11.28,11.28,0,0,0,.27-6,11.11,11.11,0,0,0-1.78-5.58,15.49,15.49,0,0,0-7.17-6.14,14.36,14.36,0,0,0-9.77-.75c-3.58,1.15-7.23,3.41-9,6.89a405.11,405.11,0,0,0-18.76,43.91l29.46,4A330.09,330.09,0,0,0,550,219.75a16.7,16.7,0,0,0-4.39-10.61l-3-2.34A11.11,11.11,0,0,0,537,205a14.34,14.34,0,0,0-9.56,1.78c-3.18,2-6.08,5.15-6.89,9a192.91,192.91,0,0,0-4.27,48.16,15.75,15.75,0,0,0,4.4,10.61,15.23,15.23,0,0,0,10.6,4.39c3.88-.17,7.91-1.45,10.61-4.39a15.56,15.56,0,0,0,4.39-10.61l-.11-81.37a168.36,168.36,0,0,1,.88-21.89l-.54,4a68.32,68.32,0,0,1,1.51-7.77H519.08l6.65,32.5c.73,3.55,3.85,7.19,6.89,9a15.32,15.32,0,0,0,11.56,1.51c3.63-1.17,7.13-3.42,9-6.89l1.51-3.59a15.18,15.18,0,0,0,0-8q-.31-2-.6-4l.54,4a155.85,155.85,0,0,1,0-41.22l-.54,4c.14-1,.29-2,.44-3l-27.42,3.59a31.32,31.32,0,0,1,1.54,3.13l-1.51-3.59a31,31,0,0,1,2,7.56l-.53-4a31,31,0,0,1,0,7.39l.53-4a22.74,22.74,0,0,1-1,4.53l1.52-3.59a4.29,4.29,0,0,1-.52.91l2.34-3-.25.23,3-2.35-.29.18,3.58-1.52-.39.12,4-.53a2.5,2.5,0,0,1-.82,0l4,.53a11.8,11.8,0,0,1-1.52-.51l3.59,1.51a16.15,16.15,0,0,1-3.25-1.94l3,2.34a18.83,18.83,0,0,1-2.95-3l2.34,3a22.6,22.6,0,0,1-2.73-4.65l1.51,3.58a27.75,27.75,0,0,1-1.83-6.88l.54,4a53,53,0,0,1,.05-12.84l-.54,4a10.61,10.61,0,0,1,.45-1.93l-1.51,3.58a7.76,7.76,0,0,1,.54-1l-2.34,3a4.6,4.6,0,0,1,.71-.75l-3,2.35a3.16,3.16,0,0,1,.56-.33l-3.58,1.52a4.22,4.22,0,0,1,.92-.27l-4,.53a2.66,2.66,0,0,1,.63,0l-4-.54a2.94,2.94,0,0,1,.59.12l-3.58-1.51a2,2,0,0,1,.52.28l-3-2.35a2.19,2.19,0,0,1,.42.44l10.6-25.6a64.08,64.08,0,0,1-15-.26l4,.54A53.66,53.66,0,0,1,509.6,110l3.59,1.51a17.65,17.65,0,0,1-3.47-1.95l3,2.35a10.52,10.52,0,0,1-1.73-1.67l2.34,3a8.57,8.57,0,0,1-.87-1.42l1.51,3.58a7.61,7.61,0,0,1-.47-1.63l.53,4a8.53,8.53,0,0,1,0-1.75l-.54,4a11.26,11.26,0,0,1,.57-2.12l-1.51,3.58a16.31,16.31,0,0,1,2.14-3.59l-2.35,3a20.89,20.89,0,0,1,3.51-3.46l-3,2.34a22.7,22.7,0,0,1,4.6-2.67l-3.58,1.51a22.27,22.27,0,0,1,5.5-1.48l-4,.54a20.33,20.33,0,0,1,4.93,0l-4-.54c.38,0,.75.12,1.13.18l4-29.46a43.13,43.13,0,0,1-4.82-.27l4,.54a16.17,16.17,0,0,1-3.75-1l3.58,1.51a10.24,10.24,0,0,1-2-1.19l3,2.35a9.83,9.83,0,0,1-1.29-1.29l2.34,3a9.43,9.43,0,0,1-1.11-1.86l1.51,3.59a8.47,8.47,0,0,1-.46-1.69l.54,4a7,7,0,0,1,0-1.37l-.54,4a6.82,6.82,0,0,1,.37-1.32l-1.51,3.58a6.88,6.88,0,0,1,.67-1.1l-2.35,3a6.51,6.51,0,0,1,.84-.82l-3,2.34a6.26,6.26,0,0,1,1.26-.71l-3.58,1.51a8.68,8.68,0,0,1,1.74-.43l-4,.54a12.46,12.46,0,0,1,2.59,0l-4-.53a20.16,20.16,0,0,1,5,1.39l-3.59-1.51c.41.17.81.36,1.21.55l3.59-27.42c-2.88.6-5.78,1.09-8.69,1.49l4-.54a124.27,124.27,0,0,1-32.24,0l4,.54c-3.08-.42-6.14-.94-9.17-1.58a48.22,48.22,0,0,1-8.05-2.14L471,76.64a14.84,14.84,0,0,1-2.78-1.55l3,2.35a9.14,9.14,0,0,1-1.42-1.36l2.34,3a6.7,6.7,0,0,1-.64-1.05l1.51,3.58a5.18,5.18,0,0,1-.32-1.15l.53,4a5.9,5.9,0,0,1,0-.94l-.54,4,0-.33-14.46,11a59.77,59.77,0,0,1,15.06,0l-4-.54a60.54,60.54,0,0,1,14.12,3.67l4-29.46a112.3,112.3,0,0,1-18.05-1l4,.54a111.39,111.39,0,0,1-27.93-7.66l3.58,1.51a38,38,0,0,1-8.46-4.45l3,2.35a14.05,14.05,0,0,1-2.05-2l2.34,3a10.68,10.68,0,0,1-1.18-2l1.51,3.59a9.68,9.68,0,0,1-.63-2.22l.53,4a9.08,9.08,0,0,1,0-1.88l-.54,4a8,8,0,0,1,.35-1.44l-1.51,3.59a7.78,7.78,0,0,1,.71-1.3l-2.34,3A6.82,6.82,0,0,1,442,72.43l-3,2.34a8.65,8.65,0,0,1,1.78-1l-3.58,1.52a13.82,13.82,0,0,1,2.76-.71l-4,.54a47.79,47.79,0,0,1,9,0c3.52.2,7,.54,10.51,1l-4-.53c3.67.49,7.58.84,11,2.26L459,76.32a12.11,12.11,0,0,1,2.33,1.31l-3-2.34a7.27,7.27,0,0,1,1.32,1.28l-2.35-3a5.54,5.54,0,0,1,.58,1L456.28,71a4.91,4.91,0,0,1,.24.83l-.54-4A5,5,0,0,1,456,69l.53-4a5.89,5.89,0,0,1-.27,1l1.51-3.58a6.44,6.44,0,0,1-.72,1.21l2.35-3a10.47,10.47,0,0,1-1.3,1.28l3-2.35c-3.58,2.77-8.12,4.67-12.27,6.42l3.59-1.51A94.41,94.41,0,0,1,429,70.87l4-.54c-.77.1-1.55.2-2.33.28l14.47,19a15.63,15.63,0,0,1,.52-1.5l-1.51,3.58a16.73,16.73,0,0,1,2-3.37l-2.34,3a42.57,42.57,0,0,1,7.53-6.84l-3,2.34c3.86-3,7.8-5.89,12.31-7.82L457,80.54a27.44,27.44,0,0,1,6.09-1.71l-4,.54a31.34,31.34,0,0,1,8.21,0l-4-.54a78,78,0,0,1,12.92,3.22L489,86.19l26.17,8.41a15,15,0,0,0,18.45-10.48c.88-3.84.69-8.15-1.51-11.56a16.21,16.21,0,0,0-9-6.89Z" transform="translate(-24.89 -10.65)"/><path class="cls-3" d="M503.48,66.16a225.69,225.69,0,0,1,18.07,17.33q2.38,2.66,4.58,5.47l-2.34-3a94.25,94.25,0,0,1,11.94,21.19l-1.51-3.58c3.27,7.77,6.16,15.71,9.17,23.59l2.67,7a11.32,11.32,0,0,0,2.68,5.1,11.34,11.34,0,0,0,4.21,3.86,11.11,11.11,0,0,0,5.58,1.78,11.37,11.37,0,0,0,6-.26l3.58-1.52a14.92,14.92,0,0,0,5.38-5.38l1.52-3.58a15.21,15.21,0,0,0,0-8l-6.84-17.86c-2.53-6.59-5.08-13.18-8-19.63a89,89,0,0,0-8.45-15.1,126.52,126.52,0,0,0-13.11-15.65c-4.46-4.5-9.19-8.72-13.92-12.92a11.14,11.14,0,0,0-4.83-3.1,13.5,13.5,0,0,0-11.56,0,11.11,11.11,0,0,0-4.82,3.1l-2.35,3a14.94,14.94,0,0,0-2.05,7.57l.54,4a15,15,0,0,0,3.86,6.62Z" transform="translate(-24.89 -10.65)"/><path class="cls-3" d="M557.71,114.51a56.5,56.5,0,0,1,3.84,7.46L560,118.39a55.58,55.58,0,0,1,3.82,14l-.54-4a90.67,90.67,0,0,1,.62,11.65c0,3.89,0,7.78,0,11.67l0,23.7,0,13.48a11.47,11.47,0,0,0,1.29,5.78,15.41,15.41,0,0,0,13.71,9.22l4-.54a14.94,14.94,0,0,0,6.62-3.85l2.35-3a15,15,0,0,0,2-7.57l.07-34.06c0-5.66.08-11.33,0-17,0-2.76-.15-5.52-.45-8.27a85.64,85.64,0,0,0-1.84-11.25,58.54,58.54,0,0,0-2.66-8,78.63,78.63,0,0,0-5.36-11,11.34,11.34,0,0,0-3.86-4.21,13.51,13.51,0,0,0-11.09-3A11.11,11.11,0,0,0,563.09,94l-3,2.34a15.05,15.05,0,0,0-3.86,6.62l-.53,4a14.91,14.91,0,0,0,2.05,7.57Z" transform="translate(-24.89 -10.65)"/><path class="cls-3" d="M364.62,242.14c-.34,1.66.65,2.82,1.91,3.74s2.48,1.73,3.75,2.53a77.13,77.13,0,0,0,7.92,4.36,1.55,1.55,0,0,0,2.05-.54,1.51,1.51,0,0,0-.54-2,77.69,77.69,0,0,1-6.9-3.73c-1.09-.66-2.15-1.35-3.2-2.07-.52-.35-1.08-.71-1.56-1.08-.13-.1-.33-.4-.48-.46s0-.09-.06.09a1.53,1.53,0,0,0-1.05-1.84,1.51,1.51,0,0,0-1.84,1Z" transform="translate(-24.89 -10.65)"/><path class="cls-3" d="M367.13,249.53c.07,0,.29.06,0,0l.2.05.47.14.08,0,.14.06.5.27c.59.35,1.14.76,1.69,1.16a8.32,8.32,0,0,0,4.11,1.79,5.89,5.89,0,0,0,1.26-.06c.36-.05,1,0,1.23-.09l.1,0c-.15-.08-.17-.09-.07,0s.07,0-.05-.06l.18.18s-.11-.18-.06,0,0-.08,0-.08c-.05.27,0,0,0-.06s.32-.8.44-.64a4.46,4.46,0,0,0-.56.13l-.24,0h-.08a10.39,10.39,0,0,1-1.12,0l-.56,0-.2,0-.12,0a9.87,9.87,0,0,1-1.17-.27,7.38,7.38,0,0,1-2.11-1,5.23,5.23,0,0,1-.83-.66,4.78,4.78,0,0,1-.45-.45l-.17-.18s-.28-.34-.17-.19a1.54,1.54,0,0,0-2.05-.54,1.51,1.51,0,0,0-.54,2,10.77,10.77,0,0,0,11,4,2.36,2.36,0,0,0,1.87-2.8,3,3,0,0,0-2.12-2.29c-1.15-.31-2.24.11-3.39,0,.29,0-.18,0-.28-.07l-.33-.1-.14-.06-.14-.07-.25-.13-.61-.37c-1.77-1.15-3.27-2.49-5.47-2.7a1.5,1.5,0,0,0,0,3Z" transform="translate(-24.89 -10.65)"/><path class="cls-3" d="M366,252.1c0,3.66,3.74,5.34,6.93,5.25,1.83-.05,3.64-.35,5.46-.45a59.44,59.44,0,0,1,6,0c1.71.08,2-2.5.39-2.95l-2.84-.79a1.5,1.5,0,0,0-.8,2.89l2.85.79.4-2.94a63.57,63.57,0,0,0-9.56.31,9,9,0,0,1-4.13-.13,2.32,2.32,0,0,1-1.67-2,1.5,1.5,0,0,0-3,0Z" transform="translate(-24.89 -10.65)"/><path class="cls-3" d="M381.18,255.23a1.5,1.5,0,0,0,0-3,1.5,1.5,0,0,0,0,3Z" transform="translate(-24.89 -10.65)"/><path class="cls-3" d="M381.18,255.23h1.64a1.17,1.17,0,0,0,.58-.13,1.24,1.24,0,0,0,.48-.31,1.14,1.14,0,0,0,.31-.48,1.17,1.17,0,0,0,.13-.58l-.06-.4a1.45,1.45,0,0,0-.38-.66,1.56,1.56,0,0,0-1.06-.44h-1.64a1.08,1.08,0,0,0-.58.13,1.14,1.14,0,0,0-.48.31,1,1,0,0,0-.31.48,1.15,1.15,0,0,0-.13.58l.06.4a1.49,1.49,0,0,0,1.44,1.1Z" transform="translate(-24.89 -10.65)"/><path class="cls-3" d="M385.56,244.36A34.59,34.59,0,0,1,395.14,255a1.5,1.5,0,0,0,2.59-1.52,38,38,0,0,0-10.66-11.74,1.5,1.5,0,0,0-1.51,2.59Z" transform="translate(-24.89 -10.65)"/><path class="cls-3" d="M384,245.29l.62,2.3a1.51,1.51,0,0,0,.69.9,1.49,1.49,0,0,0,1.15.15,1.5,1.5,0,0,0,1.05-1.85l-.62-2.3a1.57,1.57,0,0,0-.69-.89,1.51,1.51,0,0,0-1.16-.15,1.49,1.49,0,0,0-.89.68,1.56,1.56,0,0,0-.15,1.16Z" transform="translate(-24.89 -10.65)"/><path class="cls-3" d="M386.42,249.34a1.5,1.5,0,0,0,0-3,1.5,1.5,0,0,0,0,3Z" transform="translate(-24.89 -10.65)"/><path class="cls-3" d="M385,247.84l-.42,4.9a1.5,1.5,0,0,0,.44,1.06,1.52,1.52,0,0,0,1.06.44,1.54,1.54,0,0,0,1.5-1.5l.42-4.9a1.5,1.5,0,0,0-1.5-1.5,1.54,1.54,0,0,0-1.5,1.5Z" transform="translate(-24.89 -10.65)"/><path class="cls-3" d="M386,246.26a16.07,16.07,0,0,1,.55,1.79c.07.25.12.52.17.78s.07.35.1.52.06.47,0,.13a16.57,16.57,0,0,1,.06,3.59,1.5,1.5,0,0,0,1.5,1.5,1.54,1.54,0,0,0,1.5-1.5,17.7,17.7,0,0,0-1-7.6,1.5,1.5,0,0,0-2.9.79Z" transform="translate(-24.89 -10.65)"/><path class="cls-3" d="M387.18,246.54a10.31,10.31,0,0,0,3.63,8.05,1.53,1.53,0,0,0,2.12,0,1.51,1.51,0,0,0,0-2.12c-.23-.19-.46-.4-.68-.62s-.23-.24-.33-.36l-.15-.17s-.22-.29-.08-.1,0,0-.05-.07l-.15-.22-.24-.37a9,9,0,0,1-.46-.87s-.06-.18-.09-.2.1.27,0,.06-.12-.31-.17-.46a6.88,6.88,0,0,1-.24-.89c0-.16-.06-.33-.09-.49s0,.29,0,.08,0-.18,0-.27a8.08,8.08,0,0,1,0-1,1.5,1.5,0,0,0-3,0Z" transform="translate(-24.89 -10.65)"/><path class="cls-3" d="M389.91,249.53l1.89,5.27a1.5,1.5,0,1,0,2.89-.8l-1.89-5.26a1.59,1.59,0,0,0-.69-.9,1.5,1.5,0,0,0-2.2,1.69Z" transform="translate(-24.89 -10.65)"/><path class="cls-3" d="M383.47,254.57h8.84a1.5,1.5,0,0,0,0-3h-8.84a1.5,1.5,0,0,0,0,3Z" transform="translate(-24.89 -10.65)"/><path class="cls-1" d="M262.15,391.49a143,143,0,0,1,1.33-36.68c2.08-11.94,5.82-23.49,8.31-35.34s2.49-23.48,2.47-35.65c0-8.93,1.36-21.77,11.63-24.75,8.63-2.5,5-16-3.73-13.5-28.56,8.28-19.19,43.12-22.83,64.73-2.26,13.46-6.76,26.43-9.19,39.85a157.38,157.38,0,0,0-2,41.34c.76,8.91,14.77,9,14,0Z" transform="translate(-24.89 -10.65)"/><path class="cls-1" d="M267.59,258.63a39.41,39.41,0,0,1,.35,6c-.05.5,0,.54.05.11a11.14,11.14,0,0,1-.34,1.52c-.23.82-.28.7-1,1.73-2.28,3-.48,7.82,2.51,9.57,3.58,2.1,7.29.52,9.58-2.51,3.54-4.69,3.55-10.88,2.9-16.46-.44-3.75-2.91-7-7-7-3.45,0-7.44,3.22-7,7Z" transform="translate(-24.89 -10.65)"/><path class="cls-1" d="M291.06,255.91c1.59-1.51,6.71,2,8.12,2.71a61.07,61.07,0,0,0,10.93,4.05A54.66,54.66,0,0,0,331.33,264c13.43-2,25.76-16.37,15.34-29.05-4.27-5.19-10.86-8.15-15.95-12.47-2.15-1.82-4.72-3.77-6-6.3-1.44-2.76-.85-6-.56-9,.67-6.81.51-13.35-4.14-18.84-4.8-5.66-12.13-10-18.42-13.78-7.75-4.65-14.79,7.45-7.07,12.09,2.83,1.7,5.6,3.47,8.29,5.39,2.26,1.62,5.81,3.63,7.16,6.17,2.25,4.25-.43,11.23-.06,15.9,1,12.3,12.36,20,21.75,26.33,3.38,2.26,7.47,5.38,2.07,8.41-5,2.84-12.74,1.87-18.12.72-11.46-2.47-23.59-13.83-34.42-3.57-6.55,6.21,3.36,16.09,9.9,9.9Z" transform="translate(-24.89 -10.65)"/><path class="cls-1" d="M158,302.84c7.48-1.76,12.76-8.88,17.89-14.12,5.51-5.62,10.95-11.3,16.16-17.19a262.5,262.5,0,0,0,27.49-38.1c7.78-12.8,15.72-25.3,27.81-34.48,6.15-4.66,12.51-9.09,18.8-13.55,6.45-4.57,13-8.88,20.71-11,8.68-2.39,5-15.9-3.72-13.5-15.05,4.14-27.49,14.79-39.9,23.79-12.67,9.18-22.23,20.06-30.6,33.25-8.27,13-15.82,26.29-25.76,38.18-5,6-10.38,11.81-15.82,17.48-2.94,3.06-5.91,6.08-8.89,9.09-2.26,2.28-4.7,5.89-7.89,6.64-8.76,2.07-5.05,15.57,3.72,13.5Z" transform="translate(-24.89 -10.65)"/><path class="cls-1" d="M301.05,150.88c-5.32,1.92-9.75,5.57-14.89,7.93s-9.87,3.58-13.17,8.57c-5,7.54,7.14,14.56,12.09,7.07.43-.65,2.91-1.31,3.54-1.57,2-.82,4.07-1.7,6-2.67,3.4-1.68,6.59-4.56,10.12-5.83,8.41-3,4.78-16.57-3.73-13.5Z" transform="translate(-24.89 -10.65)"/><path class="cls-1" d="M290.58,173.54c-.42,6.84-.86,14.57,1,21.24a16.1,16.1,0,0,0,4.46,7.35c1.82,1.71,5,2.5,5.59,4.86s-.49,5.75-.4,8.33a24,24,0,0,0,2.42,9.62c3.05,6.39,8.18,12,12.36,17.68,2.27,3.06,6,4.53,9.58,2.51,3-1.71,4.76-6.54,2.51-9.58-3.86-5.22-8.65-10.43-11.63-16.23-2.46-4.79-.28-10.24-1.16-15.39a14.13,14.13,0,0,0-3.15-7c-1.82-2.13-5.22-3.09-6.81-5.17-1.21-1.58-.88-5.13-1-7a105.38,105.38,0,0,1,.15-11.24c.57-9-13.44-9-14,0Z" transform="translate(-24.89 -10.65)"/><path class="cls-1" d="M325.15,244.84q-2.41-1-1.28-3.13a7.07,7.07,0,0,1-1.3.13c-1.33-.66-3.35-.8-4.82-1.36a73.58,73.58,0,0,0-12.05-3.79,109.18,109.18,0,0,0-24.47-2c-16.26.56-23.94,20.63-26.84,34.22-3.65,17.07-1.93,34.43-2.5,51.72-.61,18.51-6.39,35.69-12.59,53l11.7-3.09c-5.7-6.57-13.43-10.45-20.63-15.09a105.71,105.71,0,0,1-34.67-37.2c-2-3.66-3.78-7.5-6.72-10.57s-7-4.68-10.49-7.06a2.48,2.48,0,0,1-.9-1c-.26-.72-.45.84.59-.25,1.55-1.64,3.46-3,5.13-4.57q5.48-5,10.66-10.26a253.19,253.19,0,0,0,18.37-20.91c11.84-15.05,21-31.45,31-47.66,10-16,24.17-33.38,44.57-34.48l-7-7c.22,8.9-2.35,17.69-.59,26.57,1.4,7.08,5.52,13.9,12.25,17,3.69,1.68,9.45.67,10.29-4.19l1-6.09c1.53-8.88-10.32-12.21-13.5-3.72-5.26,14,5.69,25,10.91,36.89l6-10.53-38.18-.59c-9.05-.13-9,13.55,0,14a56.33,56.33,0,0,0,31.57-7.84c3.53-2.08,5-8.12,1.42-11a40.41,40.41,0,0,0-10.44-5.79c-1.57-.65-3-1.67-4.6-2.27-3.05-1.2.79-1.48-2.46-.3l-8.86-6.75a203.74,203.74,0,0,1,.26,24c-.41,8.49,11,8.66,13.75,1.86a62.79,62.79,0,0,0,4.43-24.46c-.12-7.94-11.44-9.44-13.75-1.86a98.47,98.47,0,0,1-10.76,23.57l13,3.53-1.45-21.91c-.54-8.2-10.82-9.1-13.75-1.86a138.64,138.64,0,0,0-6.79,21.71c-1.65,7.32,9.32,13,12.79,5.39a301.34,301.34,0,0,0,18-50.41c1.95-7.55-8.87-12.48-12.79-5.4q-10.4,18.75-19.33,38.24l12.8,5.4q8.73-24.76,16.35-49.9c2.25-7.42-9.51-12.76-12.79-5.4a473.69,473.69,0,0,1-27.08,51.8l12.8,5.39,12.31-37.67c2.52-7.73-8.7-12-12.8-5.4q-15.79,25.36-30.93,51.12l12.09,7.06a345.28,345.28,0,0,1,20.47-40.67l-12.09-7.06a310.35,310.35,0,0,1-43.4,58.86l11,8.48c9.21-16.34,18.52-32.76,31.75-46.25l-11-8.48L169.42,317.38c-4.34,6.74,5.45,14.09,11,8.48q26.26-26.58,54.71-50.86l-9.9-9.9-45.51,56.45,11,8.48a283.62,283.62,0,0,0,33.49-70c1.81-5.64-5.23-11.3-10.29-7.9-8.51,5.72-14.94,13.38-21.46,21.18q-11.38,13.6-22.66,27.3l11.7,6.81c3.07-7.44,2.93-18.14,10.31-22.88,8.72-5.59,19.41-7.92,28.63-12.61a85,85,0,0,0,37.78-39.17c3.2-6.78-5.21-14.66-11-8.48a171.42,171.42,0,0,0-26.12,36.35c-3.17,5.94,3.4,13.45,9.58,9.58q23.78-14.9,46.24-31.7l-8.48-11Q242.52,254.27,214.71,279l11,8.49a351.81,351.81,0,0,1,34.15-57.13l-12.79-1.67c2.41,11.23-4.49,22.74-3.72,34.2.44,6.48,7.15,8.67,11.95,4.95a50.45,50.45,0,0,0,18.29-29.54c1.06-5.08-3.21-10.15-8.61-8.61-7.42,2.12-12,12.11-15.12,18.67a108.87,108.87,0,0,0-8.07,23.68c-3.86,17.65-4,35.75-3.8,53.73.09,9.55.24,19.11-.18,28.65-.05,1.09-1,5.81-.48,6.57q6.52-1.72,2.63-2.59c-1.06-.47-2.11-1-3.14-1.51a77.68,77.68,0,0,1-10.3-6.51,209,209,0,0,1-19.22-16.18c-5.61-5.26-10.94-11.09-13.69-18.38l-3.21,7.9c-2.51.08-2.77.57-.8,1.48l3.12,2.43,6.23,4.85,12.48,9.7,25,19.41c4.66,3.62,11.75,1.59,12-4.95.32-10.91-11.36-20.83-18.7-27.63C221,321,211.38,313.9,201.88,306.85l-3.53,13c17.51,1.5,32.33,13,45.85,23.22,6,4.52,12.57-4,9.58-9.58-5.07-9.5-10.29-19.17-16.43-28-2.7-3.91-6-7-10.69-8.15-5.56-1.37-11.6-1.65-17.27-2.41-3.78-.51-7.47.91-8.61,4.89-1,3.46,1.2,7.84,4.89,8.61a74.18,74.18,0,0,1,10.23,2.83,33.53,33.53,0,0,1,4.86,2.05L222,314c1.22,1.29,1.4.84.57-1.33l8.61-4.89a29.3,29.3,0,0,1-11.06-6.12c-1.49-1.34-2.64-3.21-4.14-4.48s.43-2.88-2.69,1.16c-2.51,3.23-2,2.3,1,2.85a78.7,78.7,0,0,1,27.53,10.75l3.53-13c-2.5-.3-5.13-5.31-6.43-7-2.88-3.87-5.88-7.54-10.27-9.75L227,294.9,243,292.22c5.68-1,7.06-10.43,1.67-12.79L232,273.9l-1.68,12.8q7.24-2.68,14.67-4.79c8.66-2.44,5-16-3.72-13.5q-7.44,2.1-14.67,4.79c-4.94,1.83-7.74,10.14-1.67,12.79l12.64,5.53,1.68-12.8-16,2.68c-5.89,1-6.81,10.2-1.67,12.79,4.42,2.23,6.77,7.1,9.8,10.81a20.13,20.13,0,0,0,14,7.9c7.31.87,8.94-9.7,3.54-13a92.9,92.9,0,0,0-22.36-10.12c-6.64-2-17.58-5.76-23,.43-5.54,6.36-.17,14.25,4.43,19.21a44.3,44.3,0,0,0,19.46,11.9c3.4,1.06,7.91-1.26,8.61-4.89,2.76-14.35-16-19.23-26.7-21.46l-3.72,13.5c5,.67,10,1.23,15,2,4.23.66,5.15,2.9,7.39,6.48q7.23,11.6,13.64,23.67l9.58-9.58c-15.91-12-32.49-23.38-52.92-25.13-7.68-.65-8.47,9.38-3.53,13.05,7.63,5.66,15.25,11.35,22.36,17.67,3.43,3.05,6.75,6.24,9.87,9.61,2.31,2.51,7.38,6.78,7.28,10.44l11.95-5-32-24.87-15.59-12.13c-4.9-3.79-9.46-5.9-15.39-3.06-2.56,1.23-4.23,5.21-3.22,7.91,4.94,13.1,14.59,22.5,25.05,31.41a203,203,0,0,0,17.14,13.54c5.3,3.6,12.63,8.65,19.31,8.2,7.72-.52,9.58-7.93,10-14.32.56-8.54.52-17.12.45-25.68-.13-15.65-.66-31.47,1.46-47a116.57,116.57,0,0,1,5.64-23.51,75,75,0,0,1,4.66-10.4q1.37-2.53,2.93-5c.45-.7.91-1.38,1.38-2.06.71-1,2.35-2,.57-1.53l-8.61-8.61A38.76,38.76,0,0,1,245.39,258l11.95,5c-.88-13,6.05-24.75,3.22-37.92-1.39-6.47-9.54-6.12-12.8-1.68a352.18,352.18,0,0,0-34.14,57.13c-3.4,7.13,4.87,13.93,11,8.48q27.81-24.74,53.72-51.48c5.3-5.47-1.9-15.92-8.48-11q-22.47,16.81-46.25,31.7l9.58,9.58a157.59,157.59,0,0,1,23.93-33.53l-11-8.48c-8.49,18-22.86,30.53-41.17,37.91-8.92,3.59-19.84,6.47-26.41,13.95S171.61,295,168,303.72c-2.64,6.41,7.39,12,11.7,6.81q10.67-12.93,21.39-25.79c6.07-7.25,12-15.17,19.9-20.51l-10.28-7.9A270,270,0,0,1,178.62,323c-4.32,6.52,6,14.72,11,8.48L235.12,275c5.62-7-3-15.83-9.9-9.9Q196.8,289.35,170.51,316l11,8.49,69.56-107.92c4.33-6.72-5.47-14.12-11-8.48-14.06,14.34-24.14,31.71-33.94,49.09-3.82,6.78,5.43,14.41,11,8.48a325.81,325.81,0,0,0,45.59-61.7c4.47-7.84-7.51-14.83-12.09-7.06a346,346,0,0,0-20.47,40.67c-3.4,8,7.38,15.08,12.09,7.06q15.13-25.76,30.93-51.11l-12.79-5.39-12.31,37.67c-2.51,7.68,8.76,12.06,12.79,5.4A474.6,474.6,0,0,0,288,179.36l-12.8-5.4q-7.61,25.14-16.35,49.91c-2.61,7.39,9.47,12.63,12.79,5.39q8.94-19.48,19.32-38.24l-12.79-5.39a281.33,281.33,0,0,1-16.59,47.07l12.8,5.39a138.64,138.64,0,0,1,6.79-21.71l-13.75-1.86,1.45,21.91c.45,6.84,9.24,9.63,13,3.53A112.33,112.33,0,0,0,294,213.05l-13.75-1.86a52.51,52.51,0,0,1-3.93,20.74l13.75,1.86a203.74,203.74,0,0,0-.26-24c-.29-4.18-4.29-8.41-8.86-6.75a13.3,13.3,0,0,0-7.83,18.16,19,19,0,0,0,8.28,8.52c3.43,1.92,7.76,2.61,10.87,5.08l1.41-11a42.7,42.7,0,0,1-24.5,5.93v14l38.18.59c5.8.08,8.08-5.9,6.05-10.54-3.48-7.94-13-16.85-9.5-26.1L290.45,204l-1,6.09,10.28-4.18c-10.7-4.9-4.51-22.6-4.73-31.46-.09-3.63-3.13-7.21-7-7-44.29,2.39-59.95,51.94-82.38,82.13a243.21,243.21,0,0,1-20.29,23.78q-4.84,5-9.95,9.74c-3.75,3.48-8.86,6.72-10.93,11.55a13.31,13.31,0,0,0,1.3,12.35c2.78,4.36,7.08,6.18,11.22,8.89,3.62,2.37,5,6.43,7.07,10.08a112.21,112.21,0,0,0,8.32,12.62,121,121,0,0,0,22.48,22.84c8.46,6.54,19.25,10.83,26.3,19,3.72,4.29,10.06,1.48,11.7-3.09,6.89-19.18,12.68-38.09,13.14-58.63.42-18.49-1.85-37.53,4.55-55.3a44.38,44.38,0,0,1,5.32-10.31c1-1.4,2.22-3.56,3.86-4.27s4.95-.06,6.79,0c9.44.32,18,1.5,26.83,4.88,7.55,2.9,17.61,3.44,22.43-4.53a12.12,12.12,0,0,0-6.85-17.82c-8.64-2.62-12.33,10.89-3.72,13.5Z" transform="translate(-24.89 -10.65)"/><path class="cls-1" d="M307.8,176.79c-.36-4.4-1-9.36,1.07-13.46,2-3.92,6.24-6.54,9.59-9.19,2.27-1.8,1-6.2-1.77-6.68a23.91,23.91,0,0,0-17.05,3c-4.42,2.64-.4,9.55,4,6.9a15.39,15.39,0,0,1,10.89-2.19l-1.76-6.68c-4.46,3.53-9.13,6.86-11.49,12.23-2.24,5.06-2,10.68-1.51,16.07.43,5.09,8.43,5.14,8,0Z" transform="translate(-24.89 -10.65)"/><path class="cls-1" d="M317,153.65c5.14,0,5.15-8,0-8s-5.16,8,0,8Z" transform="translate(-24.89 -10.65)"/><g class="cls-2"><path class="cls-4" d="M308.53,214.34c3.21,0,3.22-5,0-5s-3.23,5,0,5Z" transform="translate(-24.89 -10.65)"/></g><path class="cls-1" d="M295.44,247.53a32.68,32.68,0,0,0-16.58,5.18c-2.53,1.62-3.31,6.36,0,7.77l1.66.71-2.07-5.09C270.32,276,264.1,299,245.21,311.49c-4.81,3.17-.31,11,4.55,7.77,21.19-14,28.22-38.4,37.37-60.76a4.48,4.48,0,0,0-2.06-5.08l-1.67-.71v7.77a23.34,23.34,0,0,1,12-4c5.76-.27,5.8-9.27,0-9Z" transform="translate(-24.89 -10.65)"/><path class="cls-1" d="M217.55,86.74h5.56a4.5,4.5,0,0,0,0-9h-5.56a4.5,4.5,0,0,0,0,9Z" transform="translate(-24.89 -10.65)"/><path class="cls-3" d="M538.63,107.27c.46,0,.91.06,1.36.12l-8-1.07a15,15,0,0,1,3.48,1l-7.16-3a17.43,17.43,0,0,1,3.67,2.18l-6.07-4.69a27,27,0,0,1,4.57,4.69l-4.69-6.07c4.24,5.53,7.3,12.13,10,18.5l-3-7.16a50.42,50.42,0,0,1,3.63,12.51l-1.07-8c.88,6.61.63,13.35.65,20l.07,19.9.15,40.28c0,7.31.14,14.65-.83,21.91l1.07-8a60.55,60.55,0,0,1-4.08,14.83l3-7.16c-3.39,8-7.82,15.62-11.91,23.29L517.29,253a74.78,74.78,0,0,1-6.52,10.74l4.69-6.07a33.62,33.62,0,0,1-5.58,5.54l6.07-4.69a52.62,52.62,0,0,1-11.67,6.53l7.16-3c-2.4,1-4.83,1.89-7.28,2.75a33.58,33.58,0,0,0-17.93,13.79,22.32,22.32,0,0,0-3.56,11.15,22.79,22.79,0,0,0,.54,12l3,7.16A30.26,30.26,0,0,0,497,319.65l7.17,3a30.19,30.19,0,0,0,15.95,0,184.57,184.57,0,0,0,17.26-7c5.65-2.65,10.37-6.31,15.25-10.23a32,32,0,0,0,4-3.74c2.24-2.52,4.23-5.29,6.25-8,.63-.83,1.23-1.69,1.8-2.56,2.3-3.54,4.2-7.35,6.18-11.07,4.15-7.79,8.38-15.54,12.43-23.37a162.15,162.15,0,0,0,8.12-18.35c2.4-6.49,3.15-13.16,4-20,1.14-8.65.85-17.43.81-26.13l-.09-27.36-.1-27.11c0-4.51,0-9-.09-13.54-.05-2.17-.16-4.35-.39-6.51a103.35,103.35,0,0,0-2.16-14.09,51,51,0,0,0-1.94-5.91c-1.64-4.2-3.41-8.38-5.33-12.47-1.56-3.33-3.18-6.68-5-9.87a47.22,47.22,0,0,0-2.73-4.25,89,89,0,0,0-7.5-9.48c-.51-.54-1-1-1.61-1.54a93.52,93.52,0,0,0-7.65-5.93A17.84,17.84,0,0,0,559.8,53c-.34-.18-.68-.34-1-.5-2.62-1.2-5.35-2.41-8.08-3.38a13.38,13.38,0,0,0-2.06-.57c-2.84-.53-5.78-.84-8.64-1.18-.45,0-.9-.09-1.36-.12a22.66,22.66,0,0,0-11.56,2.59,22.38,22.38,0,0,0-9.65,6.2,22.46,22.46,0,0,0-6.21,9.65,22.55,22.55,0,0,0-2.58,11.56l1.07,8a30.06,30.06,0,0,0,7.72,13.24l6.07,4.69a29.81,29.81,0,0,0,15.14,4.09Z" transform="translate(-24.89 -10.65)"/><path class="cls-3" d="M372.81,118.25a34.07,34.07,0,0,1,.24-5.71l-1.07,8a35.19,35.19,0,0,1,2.39-8.8l-3,7.16A36.58,36.58,0,0,1,376,111l-4.69,6.07a34.79,34.79,0,0,1,5.92-5.9l-6.07,4.69a45.3,45.3,0,0,1,9.73-5.44l-7.16,3c3.25-1.38,6.59-2.56,9.87-3.88,5.47-2.19,11.22-4.33,16.27-7.47a22.67,22.67,0,0,0,8.41-7.73,22.65,22.65,0,0,0,5.37-10.2,22.75,22.75,0,0,0,.54-12,22.36,22.36,0,0,0-3.56-11.16L405.89,55a30.06,30.06,0,0,0-13.24-7.72l-8-1.07a30,30,0,0,0-15.14,4.1A54.25,54.25,0,0,1,362,54.1l7.17-3c-3.72,1.56-7.53,2.88-11.25,4.44-5.88,2.46-12,4.67-17.1,8.54a78.54,78.54,0,0,0-9.75,8,87.64,87.64,0,0,0-7.83,9.89,35.63,35.63,0,0,0-2.83,4.75,89.87,89.87,0,0,0-4.89,11.75,34.57,34.57,0,0,0-1.37,5.94c-.66,4.56-1.53,9.22-1.34,13.87a22.59,22.59,0,0,0,2.58,11.55,22.49,22.49,0,0,0,6.21,9.66,22.47,22.47,0,0,0,9.65,6.2,22.66,22.66,0,0,0,11.56,2.59l8-1.08A29.86,29.86,0,0,0,364,139.46l4.69-6.07a29.85,29.85,0,0,0,4.1-15.14Z" transform="translate(-24.89 -10.65)"/><path class="cls-3" d="M552.3,150.38l.24.3-4.69-6.07a12,12,0,0,1,1.36,2.29l-3-7.17a17.39,17.39,0,0,1,1.16,4.48l-1.08-8c.55,4.6.27,9.33.28,14l0,15.11,0,15.11,0,7.43a58.31,58.31,0,0,1-.14,6.87l1.07-8a10.27,10.27,0,0,1-.51,2.07l3-7.16a7.35,7.35,0,0,1-.65,1.2l4.69-6.07a8.63,8.63,0,0,1-.71.77,22.53,22.53,0,0,0-6.2,9.65,22.66,22.66,0,0,0-2.59,11.56,22.66,22.66,0,0,0,2.59,11.56,22.47,22.47,0,0,0,6.2,9.65l6.07,4.7a29.94,29.94,0,0,0,15.14,4.09l8-1.07A30.06,30.06,0,0,0,595.8,220a26.16,26.16,0,0,0,6.05-8c.84-1.85,2.44-5.43,3.08-7.33.08-.22.15-.44.21-.67a75.37,75.37,0,0,0,1.32-9.21,63.6,63.6,0,0,0,.14-6.62l0-15.61c0-10.36,0-20.73-.05-31.1,0-1.19,0-2.37-.1-3.56-.14-1.86-.44-3.72-.69-5.56s-.42-3.72-.79-5.54a34.65,34.65,0,0,0-2.41-6.51,37.66,37.66,0,0,0-2.21-4.93,71.1,71.1,0,0,0-5.59-7.32,22.56,22.56,0,0,0-9.66-6.2,27.09,27.09,0,0,0-23.12,0,22.59,22.59,0,0,0-9.65,6.2L547.61,114a30,30,0,0,0-4.1,15.14l1.07,8a30.06,30.06,0,0,0,7.72,13.24Z" transform="translate(-24.89 -10.65)"/><path class="cls-3" d="M545.48,120.47A97.06,97.06,0,0,1,551.94,133l-3-7.17A98.53,98.53,0,0,1,555.77,151l-1.07-8a97.44,97.44,0,0,1,0,25.59l1.07-8A45.59,45.59,0,0,1,553,172l3-7.17a49,49,0,0,1-6.35,10.43l4.69-6.07c-2,2.58-4.15,5.05-6.31,7.5a22.44,22.44,0,0,0-6.2,9.65,22.66,22.66,0,0,0-2.59,11.56,22.66,22.66,0,0,0,2.59,11.56,22.38,22.38,0,0,0,6.2,9.65l6.07,4.7a29.94,29.94,0,0,0,15.14,4.09l8-1.07a30.06,30.06,0,0,0,13.24-7.72c3-3.42,5.86-6.92,8.65-10.53a73.52,73.52,0,0,0,7.54-11,64.73,64.73,0,0,0,6.26-16.57,151.19,151.19,0,0,0,2.36-17.6,96.23,96.23,0,0,0-.45-19.64c-1.14-9.1-2.42-18-5.32-26.72a166.09,166.09,0,0,0-7-17.11,94.91,94.91,0,0,0-5.24-9.8,22.7,22.7,0,0,0-7.73-8.42,27,27,0,0,0-22.16-5.91,22.46,22.46,0,0,0-11.16,3.56l-6.07,4.7a29.86,29.86,0,0,0-7.71,13.23l-1.08,8a30,30,0,0,0,4.1,15.14Z" transform="translate(-24.89 -10.65)"/></svg>